%TF.GenerationSoftware,KiCad,Pcbnew,9.0.3-9.0.3-0~ubuntu24.04.1*%
%TF.CreationDate,2025-07-19T21:47:56-07:00*%
%TF.ProjectId,Keyboard,4b657962-6f61-4726-942e-6b696361645f,rev?*%
%TF.SameCoordinates,Original*%
%TF.FileFunction,Soldermask,Bot*%
%TF.FilePolarity,Negative*%
%FSLAX46Y46*%
G04 Gerber Fmt 4.6, Leading zero omitted, Abs format (unit mm)*
G04 Created by KiCad (PCBNEW 9.0.3-9.0.3-0~ubuntu24.04.1) date 2025-07-19 21:47:56*
%MOMM*%
%LPD*%
G01*
G04 APERTURE LIST*
G04 Aperture macros list*
%AMRoundRect*
0 Rectangle with rounded corners*
0 $1 Rounding radius*
0 $2 $3 $4 $5 $6 $7 $8 $9 X,Y pos of 4 corners*
0 Add a 4 corners polygon primitive as box body*
4,1,4,$2,$3,$4,$5,$6,$7,$8,$9,$2,$3,0*
0 Add four circle primitives for the rounded corners*
1,1,$1+$1,$2,$3*
1,1,$1+$1,$4,$5*
1,1,$1+$1,$6,$7*
1,1,$1+$1,$8,$9*
0 Add four rect primitives between the rounded corners*
20,1,$1+$1,$2,$3,$4,$5,0*
20,1,$1+$1,$4,$5,$6,$7,0*
20,1,$1+$1,$6,$7,$8,$9,0*
20,1,$1+$1,$8,$9,$2,$3,0*%
%AMFreePoly0*
4,1,37,0.603843,0.796157,0.639018,0.796157,0.711114,0.766294,0.766294,0.711114,0.796157,0.639018,0.796157,0.603843,0.800000,0.600000,0.800000,-0.600000,0.796157,-0.603843,0.796157,-0.639018,0.766294,-0.711114,0.711114,-0.766294,0.639018,-0.796157,0.603843,-0.796157,0.600000,-0.800000,0.000000,-0.800000,0.000000,-0.796148,-0.078414,-0.796148,-0.232228,-0.765552,-0.377117,-0.705537,
-0.507515,-0.618408,-0.618408,-0.507515,-0.705537,-0.377117,-0.765552,-0.232228,-0.796148,-0.078414,-0.796148,0.078414,-0.765552,0.232228,-0.705537,0.377117,-0.618408,0.507515,-0.507515,0.618408,-0.377117,0.705537,-0.232228,0.765552,-0.078414,0.796148,0.000000,0.796148,0.000000,0.800000,0.600000,0.800000,0.603843,0.796157,0.603843,0.796157,$1*%
%AMFreePoly1*
4,1,37,0.000000,0.796148,0.078414,0.796148,0.232228,0.765552,0.377117,0.705537,0.507515,0.618408,0.618408,0.507515,0.705537,0.377117,0.765552,0.232228,0.796148,0.078414,0.796148,-0.078414,0.765552,-0.232228,0.705537,-0.377117,0.618408,-0.507515,0.507515,-0.618408,0.377117,-0.705537,0.232228,-0.765552,0.078414,-0.796148,0.000000,-0.796148,0.000000,-0.800000,-0.600000,-0.800000,
-0.603843,-0.796157,-0.639018,-0.796157,-0.711114,-0.766294,-0.766294,-0.711114,-0.796157,-0.639018,-0.796157,-0.603843,-0.800000,-0.600000,-0.800000,0.600000,-0.796157,0.603843,-0.796157,0.639018,-0.766294,0.711114,-0.711114,0.766294,-0.639018,0.796157,-0.603843,0.796157,-0.600000,0.800000,0.000000,0.800000,0.000000,0.796148,0.000000,0.796148,$1*%
G04 Aperture macros list end*
%ADD10C,1.700000*%
%ADD11C,4.000000*%
%ADD12C,2.200000*%
%ADD13RoundRect,0.082000X0.718000X-0.328000X0.718000X0.328000X-0.718000X0.328000X-0.718000X-0.328000X0*%
%ADD14C,3.050000*%
%ADD15RoundRect,0.250000X0.550000X-0.550000X0.550000X0.550000X-0.550000X0.550000X-0.550000X-0.550000X0*%
%ADD16C,1.600000*%
%ADD17RoundRect,0.250000X0.475000X-0.250000X0.475000X0.250000X-0.475000X0.250000X-0.475000X-0.250000X0*%
%ADD18RoundRect,0.250000X0.450000X-0.262500X0.450000X0.262500X-0.450000X0.262500X-0.450000X-0.262500X0*%
%ADD19RoundRect,0.250000X-0.550000X-0.550000X0.550000X-0.550000X0.550000X0.550000X-0.550000X0.550000X0*%
%ADD20RoundRect,0.200000X0.600000X0.600000X-0.600000X0.600000X-0.600000X-0.600000X0.600000X-0.600000X0*%
%ADD21FreePoly0,180.000000*%
%ADD22FreePoly1,180.000000*%
G04 APERTURE END LIST*
D10*
%TO.C,SW44*%
X117792500Y-54927500D03*
D11*
X122872500Y-54927500D03*
D10*
X127952500Y-54927500D03*
D12*
X125412500Y-49847500D03*
X119062500Y-52387500D03*
%TD*%
D10*
%TO.C,SW56*%
X155892500Y-55086250D03*
D11*
X160972500Y-55086250D03*
D10*
X166052500Y-55086250D03*
D12*
X163512500Y-50006250D03*
X157162500Y-52546250D03*
%TD*%
D10*
%TO.C,SW40*%
X113030000Y-93027500D03*
D11*
X118110000Y-93027500D03*
D10*
X123190000Y-93027500D03*
D12*
X120650000Y-87947500D03*
X114300000Y-90487500D03*
%TD*%
D13*
%TO.C,D148*%
X192147500Y-79807500D03*
X192147500Y-78307500D03*
X186947500Y-78307500D03*
X186947500Y-79807500D03*
%TD*%
D10*
%TO.C,SW63*%
X184467500Y-73977500D03*
D11*
X189547500Y-73977500D03*
D10*
X194627500Y-73977500D03*
D12*
X192087500Y-68897500D03*
X185737500Y-71437500D03*
%TD*%
D13*
%TO.C,D144*%
X177860000Y-98857500D03*
X177860000Y-97357500D03*
X172660000Y-97357500D03*
X172660000Y-98857500D03*
%TD*%
D10*
%TO.C,SW11*%
X27305000Y-112077500D03*
D11*
X32385000Y-112077500D03*
D10*
X37465000Y-112077500D03*
D12*
X34925000Y-106997500D03*
X28575000Y-109537500D03*
%TD*%
D13*
%TO.C,D141*%
X163572500Y-41866250D03*
X163572500Y-40366250D03*
X158372500Y-40366250D03*
X158372500Y-41866250D03*
%TD*%
%TO.C,D157*%
X220722500Y-41707500D03*
X220722500Y-40207500D03*
X215522500Y-40207500D03*
X215522500Y-41707500D03*
%TD*%
D10*
%TO.C,SW85*%
X293766875Y-35718750D03*
D11*
X298846875Y-35718750D03*
D10*
X303926875Y-35718750D03*
D12*
X301386875Y-30638750D03*
X295036875Y-33178750D03*
%TD*%
D10*
%TO.C,SW34*%
X93980000Y-93027500D03*
D11*
X99060000Y-93027500D03*
D10*
X104140000Y-93027500D03*
D12*
X101600000Y-87947500D03*
X95250000Y-90487500D03*
%TD*%
D10*
%TO.C,SW8*%
X3492500Y-54927500D03*
D11*
X8572500Y-54927500D03*
D10*
X13652500Y-54927500D03*
D12*
X11112500Y-49847500D03*
X4762500Y-52387500D03*
%TD*%
D13*
%TO.C,D153*%
X201672500Y-60757500D03*
X201672500Y-59257500D03*
X196472500Y-59257500D03*
X196472500Y-60757500D03*
%TD*%
D10*
%TO.C,SW31*%
X79692500Y-35877500D03*
D11*
X84772500Y-35877500D03*
D10*
X89852500Y-35877500D03*
D12*
X87312500Y-30797500D03*
X80962500Y-33337500D03*
%TD*%
D13*
%TO.C,D117*%
X77847500Y-79807500D03*
X77847500Y-78307500D03*
X72647500Y-78307500D03*
X72647500Y-79807500D03*
%TD*%
%TO.C,D125*%
X106422500Y-41707500D03*
X106422500Y-40207500D03*
X101222500Y-40207500D03*
X101222500Y-41707500D03*
%TD*%
%TO.C,D96*%
X-5496250Y-136957500D03*
X-5496250Y-135457500D03*
X-10696250Y-135457500D03*
X-10696250Y-136957500D03*
%TD*%
D10*
%TO.C,SW68*%
X193992500Y-54927500D03*
D11*
X199072500Y-54927500D03*
D10*
X204152500Y-54927500D03*
D12*
X201612500Y-49847500D03*
X195262500Y-52387500D03*
%TD*%
D13*
%TO.C,D110*%
X49272500Y-60757500D03*
X49272500Y-59257500D03*
X44072500Y-59257500D03*
X44072500Y-60757500D03*
%TD*%
%TO.C,D165*%
X254060000Y-79807500D03*
X254060000Y-78307500D03*
X248860000Y-78307500D03*
X248860000Y-79807500D03*
%TD*%
D10*
%TO.C,SW46*%
X132080000Y-93027500D03*
D11*
X137160000Y-93027500D03*
D10*
X142240000Y-93027500D03*
D12*
X139700000Y-87947500D03*
X133350000Y-90487500D03*
%TD*%
D13*
%TO.C,D104*%
X30222500Y-60757500D03*
X30222500Y-59257500D03*
X25022500Y-59257500D03*
X25022500Y-60757500D03*
%TD*%
%TO.C,D93*%
X-3115000Y-79807500D03*
X-3115000Y-78307500D03*
X-8315000Y-78307500D03*
X-8315000Y-79807500D03*
%TD*%
%TO.C,D169*%
X282468125Y-79648750D03*
X282468125Y-78148750D03*
X277268125Y-78148750D03*
X277268125Y-79648750D03*
%TD*%
%TO.C,D130*%
X137562500Y-136902500D03*
X137562500Y-135402500D03*
X132362500Y-135402500D03*
X132362500Y-136902500D03*
%TD*%
D10*
%TO.C,SW62*%
X174942500Y-54927500D03*
D11*
X180022500Y-54927500D03*
D10*
X185102500Y-54927500D03*
D12*
X182562500Y-49847500D03*
X176212500Y-52387500D03*
%TD*%
D10*
%TO.C,SW49*%
X136842500Y-35877500D03*
D11*
X141922500Y-35877500D03*
D10*
X147002500Y-35877500D03*
D12*
X144462500Y-30797500D03*
X138112500Y-33337500D03*
%TD*%
D10*
%TO.C,SW36*%
X201136250Y-131127500D03*
D11*
X206216250Y-131127500D03*
D10*
X211296250Y-131127500D03*
D12*
X208756250Y-126047500D03*
X202406250Y-128587500D03*
%TD*%
D14*
%TO.C,SW30*%
X84778750Y-124127500D03*
D11*
X84778750Y-139367500D03*
D10*
X129698750Y-131127500D03*
D11*
X134778750Y-131127500D03*
D10*
X139858750Y-131127500D03*
D14*
X184778750Y-124127500D03*
D11*
X184778750Y-139367500D03*
D12*
X137318750Y-126047500D03*
X130968750Y-128587500D03*
%TD*%
D13*
%TO.C,D174*%
X301685000Y-117907500D03*
X301685000Y-116407500D03*
X296485000Y-116407500D03*
X296485000Y-117907500D03*
%TD*%
%TO.C,D179*%
X320735000Y-136957500D03*
X320735000Y-135457500D03*
X315535000Y-135457500D03*
X315535000Y-136957500D03*
%TD*%
D10*
%TO.C,SW45*%
X127317500Y-73977500D03*
D11*
X132397500Y-73977500D03*
D10*
X137477500Y-73977500D03*
D12*
X134937500Y-68897500D03*
X128587500Y-71437500D03*
%TD*%
D13*
%TO.C,D167*%
X282468125Y-41548750D03*
X282468125Y-40048750D03*
X277268125Y-40048750D03*
X277268125Y-41548750D03*
%TD*%
D10*
%TO.C,SW81*%
X246380000Y-73977500D03*
D11*
X251460000Y-73977500D03*
D10*
X256540000Y-73977500D03*
D12*
X254000000Y-68897500D03*
X247650000Y-71437500D03*
%TD*%
D10*
%TO.C,SW88*%
X312888125Y-73818750D03*
D11*
X317968125Y-73818750D03*
D10*
X323048125Y-73818750D03*
D12*
X320508125Y-68738750D03*
X314158125Y-71278750D03*
%TD*%
D13*
%TO.C,D90*%
X-7877500Y-60757500D03*
X-7877500Y-59257500D03*
X-13077500Y-59257500D03*
X-13077500Y-60757500D03*
%TD*%
%TO.C,D120*%
X87372500Y-41707500D03*
X87372500Y-40207500D03*
X82172500Y-40207500D03*
X82172500Y-41707500D03*
%TD*%
D10*
%TO.C,SW20*%
X41592500Y-54927500D03*
D11*
X46672500Y-54927500D03*
D10*
X51752500Y-54927500D03*
D12*
X49212500Y-49847500D03*
X42862500Y-52387500D03*
%TD*%
D14*
%TO.C,SW80*%
X234791250Y-47768750D03*
D11*
X234791250Y-63008750D03*
D10*
X241611250Y-54768750D03*
D11*
X246691250Y-54768750D03*
D10*
X251771250Y-54768750D03*
D14*
X258591250Y-47768750D03*
D11*
X258591250Y-63008750D03*
D12*
X249231250Y-49688750D03*
X242881250Y-52228750D03*
%TD*%
D10*
%TO.C,SW54*%
X274955000Y-131127500D03*
D11*
X280035000Y-131127500D03*
D10*
X285115000Y-131127500D03*
D12*
X282575000Y-126047500D03*
X276225000Y-128587500D03*
%TD*%
D13*
%TO.C,D121*%
X87372500Y-60757500D03*
X87372500Y-59257500D03*
X82172500Y-59257500D03*
X82172500Y-60757500D03*
%TD*%
%TO.C,D101*%
X34985000Y-117907500D03*
X34985000Y-116407500D03*
X29785000Y-116407500D03*
X29785000Y-117907500D03*
%TD*%
%TO.C,D119*%
X92135000Y-117907500D03*
X92135000Y-116407500D03*
X86935000Y-116407500D03*
X86935000Y-117907500D03*
%TD*%
D10*
%TO.C,SW66*%
X313055000Y-131127500D03*
D11*
X318135000Y-131127500D03*
D10*
X323215000Y-131127500D03*
D12*
X320675000Y-126047500D03*
X314325000Y-128587500D03*
%TD*%
D10*
%TO.C,SW61*%
X174942500Y-35877500D03*
D11*
X180022500Y-35877500D03*
D10*
X185102500Y-35877500D03*
D12*
X182562500Y-30797500D03*
X176212500Y-33337500D03*
%TD*%
D10*
%TO.C,SW78*%
X274788125Y-54768750D03*
D11*
X279868125Y-54768750D03*
D10*
X284948125Y-54768750D03*
D12*
X282408125Y-49688750D03*
X276058125Y-52228750D03*
%TD*%
D10*
%TO.C,SW9*%
X13017500Y-73977500D03*
D11*
X18097500Y-73977500D03*
D10*
X23177500Y-73977500D03*
D12*
X20637500Y-68897500D03*
X14287500Y-71437500D03*
%TD*%
D13*
%TO.C,D170*%
X282635000Y-136957500D03*
X282635000Y-135457500D03*
X277435000Y-135457500D03*
X277435000Y-136957500D03*
%TD*%
%TO.C,D151*%
X208816250Y-136957500D03*
X208816250Y-135457500D03*
X203616250Y-135457500D03*
X203616250Y-136957500D03*
%TD*%
D10*
%TO.C,SW73*%
X213042500Y-35877500D03*
D11*
X218122500Y-35877500D03*
D10*
X223202500Y-35877500D03*
D12*
X220662500Y-30797500D03*
X214312500Y-33337500D03*
%TD*%
D13*
%TO.C,D94*%
X-733750Y-98857500D03*
X-733750Y-97357500D03*
X-5933750Y-97357500D03*
X-5933750Y-98857500D03*
%TD*%
D10*
%TO.C,SW24*%
X58261250Y-131127500D03*
D11*
X63341250Y-131127500D03*
D10*
X68421250Y-131127500D03*
D12*
X65881250Y-126047500D03*
X59531250Y-128587500D03*
%TD*%
D13*
%TO.C,D164*%
X249291250Y-60652500D03*
X249291250Y-59152500D03*
X244091250Y-59152500D03*
X244091250Y-60652500D03*
%TD*%
%TO.C,D176*%
X320568125Y-41548750D03*
X320568125Y-40048750D03*
X315368125Y-40048750D03*
X315368125Y-41548750D03*
%TD*%
D10*
%TO.C,SW64*%
X189230000Y-93027500D03*
D11*
X194310000Y-93027500D03*
D10*
X199390000Y-93027500D03*
D12*
X196850000Y-87947500D03*
X190500000Y-90487500D03*
%TD*%
D10*
%TO.C,SW87*%
X293766875Y-73818750D03*
D11*
X298846875Y-73818750D03*
D10*
X303926875Y-73818750D03*
D12*
X301386875Y-68738750D03*
X295036875Y-71278750D03*
%TD*%
D10*
%TO.C,SW82*%
X274788125Y-73818750D03*
D11*
X279868125Y-73818750D03*
D10*
X284948125Y-73818750D03*
D12*
X282408125Y-68738750D03*
X276058125Y-71278750D03*
%TD*%
D15*
%TO.C,D87*%
X289500000Y-78060000D03*
D16*
X289500000Y-70440000D03*
%TD*%
D10*
%TO.C,SW42*%
X224948750Y-131127500D03*
D11*
X230028750Y-131127500D03*
D10*
X235108750Y-131127500D03*
D12*
X232568750Y-126047500D03*
X226218750Y-128587500D03*
%TD*%
D14*
%TO.C,SW5*%
X-10471250Y-105077500D03*
D11*
X-10471250Y-120317500D03*
D10*
X-3651250Y-112077500D03*
D11*
X1428750Y-112077500D03*
D10*
X6508750Y-112077500D03*
D14*
X13328750Y-105077500D03*
D11*
X13328750Y-120317500D03*
D12*
X3968750Y-106997500D03*
X-2381250Y-109537500D03*
%TD*%
D10*
%TO.C,SW15*%
X32067500Y-73977500D03*
D11*
X37147500Y-73977500D03*
D10*
X42227500Y-73977500D03*
D12*
X39687500Y-68897500D03*
X33337500Y-71437500D03*
%TD*%
D10*
%TO.C,SW84*%
X312888125Y-54768750D03*
D11*
X317968125Y-54768750D03*
D10*
X323048125Y-54768750D03*
D12*
X320508125Y-49688750D03*
X314158125Y-52228750D03*
%TD*%
D13*
%TO.C,D163*%
X239772500Y-41548750D03*
X239772500Y-40048750D03*
X234572500Y-40048750D03*
X234572500Y-41548750D03*
%TD*%
%TO.C,D132*%
X125472500Y-60757500D03*
X125472500Y-59257500D03*
X120272500Y-59257500D03*
X120272500Y-60757500D03*
%TD*%
%TO.C,D118*%
X82610000Y-98857500D03*
X82610000Y-97357500D03*
X77410000Y-97357500D03*
X77410000Y-98857500D03*
%TD*%
%TO.C,D159*%
X230247500Y-79807500D03*
X230247500Y-78307500D03*
X225047500Y-78307500D03*
X225047500Y-79807500D03*
%TD*%
D10*
%TO.C,SW18*%
X34448750Y-131127500D03*
D11*
X39528750Y-131127500D03*
D10*
X44608750Y-131127500D03*
D12*
X42068750Y-126047500D03*
X35718750Y-128587500D03*
%TD*%
D10*
%TO.C,SW27*%
X70167500Y-73977500D03*
D11*
X75247500Y-73977500D03*
D10*
X80327500Y-73977500D03*
D12*
X77787500Y-68897500D03*
X71437500Y-71437500D03*
%TD*%
D13*
%TO.C,D116*%
X68322500Y-60757500D03*
X68322500Y-59257500D03*
X63122500Y-59257500D03*
X63122500Y-60757500D03*
%TD*%
%TO.C,D175*%
X301685000Y-136957500D03*
X301685000Y-135457500D03*
X296485000Y-135457500D03*
X296485000Y-136957500D03*
%TD*%
D10*
%TO.C,SW67*%
X193992500Y-35877500D03*
D11*
X199072500Y-35877500D03*
D10*
X204152500Y-35877500D03*
D12*
X201612500Y-30797500D03*
X195262500Y-33337500D03*
%TD*%
D10*
%TO.C,SW79*%
X232092500Y-35718750D03*
D11*
X237172500Y-35718750D03*
D10*
X242252500Y-35718750D03*
D12*
X239712500Y-30638750D03*
X233362500Y-33178750D03*
%TD*%
D13*
%TO.C,D137*%
X144522500Y-60757500D03*
X144522500Y-59257500D03*
X139322500Y-59257500D03*
X139322500Y-60757500D03*
%TD*%
%TO.C,D172*%
X301446875Y-60598750D03*
X301446875Y-59098750D03*
X296246875Y-59098750D03*
X296246875Y-60598750D03*
%TD*%
%TO.C,D97*%
X11172500Y-41707528D03*
X11172500Y-40207528D03*
X5972500Y-40207528D03*
X5972500Y-41707528D03*
%TD*%
D10*
%TO.C,SW16*%
X36830000Y-93027500D03*
D11*
X41910000Y-93027500D03*
D10*
X46990000Y-93027500D03*
D12*
X44450000Y-87947500D03*
X38100000Y-90487500D03*
%TD*%
D10*
%TO.C,SW58*%
X170180000Y-93027500D03*
D11*
X175260000Y-93027500D03*
D10*
X180340000Y-93027500D03*
D12*
X177800000Y-87947500D03*
X171450000Y-90487500D03*
%TD*%
D10*
%TO.C,SW83*%
X312888125Y-35718750D03*
D11*
X317968125Y-35718750D03*
D10*
X323048125Y-35718750D03*
D12*
X320508125Y-30638750D03*
X314158125Y-33178750D03*
%TD*%
D13*
%TO.C,D99*%
X20697500Y-79807500D03*
X20697500Y-78307500D03*
X15497500Y-78307500D03*
X15497500Y-79807500D03*
%TD*%
D10*
%TO.C,SW19*%
X41592500Y-35877500D03*
D11*
X46672500Y-35877500D03*
D10*
X51752500Y-35877500D03*
D12*
X49212500Y-30797500D03*
X42862500Y-33337500D03*
%TD*%
D10*
%TO.C,SW23*%
X65405000Y-112077500D03*
D11*
X70485000Y-112077500D03*
D10*
X75565000Y-112077500D03*
D12*
X73025000Y-106997500D03*
X66675000Y-109537500D03*
%TD*%
D13*
%TO.C,D109*%
X49272500Y-41707500D03*
X49272500Y-40207500D03*
X44072500Y-40207500D03*
X44072500Y-41707500D03*
%TD*%
%TO.C,D140*%
X168335000Y-117907500D03*
X168335000Y-116407500D03*
X163135000Y-116407500D03*
X163135000Y-117907500D03*
%TD*%
%TO.C,D103*%
X30222500Y-41707500D03*
X30222500Y-40207500D03*
X25022500Y-40207500D03*
X25022500Y-41707500D03*
%TD*%
D14*
%TO.C,SW71*%
X227653750Y-105077500D03*
D11*
X227653750Y-120317500D03*
D10*
X234473750Y-112077500D03*
D11*
X239553750Y-112077500D03*
D10*
X244633750Y-112077500D03*
D14*
X251453750Y-105077500D03*
D11*
X251453750Y-120317500D03*
D12*
X242093750Y-106997500D03*
X235743750Y-109537500D03*
%TD*%
D13*
%TO.C,D160*%
X246916250Y-98902500D03*
X246916250Y-97402500D03*
X241716250Y-97402500D03*
X241716250Y-98902500D03*
%TD*%
%TO.C,D154*%
X211197500Y-79807500D03*
X211197500Y-78307500D03*
X205997500Y-78307500D03*
X205997500Y-79807500D03*
%TD*%
D10*
%TO.C,SW33*%
X89217500Y-73977500D03*
D11*
X94297500Y-73977500D03*
D10*
X99377500Y-73977500D03*
D12*
X96837500Y-68897500D03*
X90487500Y-71437500D03*
%TD*%
D10*
%TO.C,SW2*%
X-15557500Y-54927500D03*
D11*
X-10477500Y-54927500D03*
D10*
X-5397500Y-54927500D03*
D12*
X-7937500Y-49847500D03*
X-14287500Y-52387500D03*
%TD*%
D13*
%TO.C,D171*%
X301446875Y-41548750D03*
X301446875Y-40048750D03*
X296246875Y-40048750D03*
X296246875Y-41548750D03*
%TD*%
%TO.C,D168*%
X282468125Y-60598750D03*
X282468125Y-59098750D03*
X277268125Y-59098750D03*
X277268125Y-60598750D03*
%TD*%
%TO.C,D138*%
X154047500Y-79807500D03*
X154047500Y-78307500D03*
X148847500Y-78307500D03*
X148847500Y-79807500D03*
%TD*%
D10*
%TO.C,SW7*%
X3492500Y-35877528D03*
D11*
X8572500Y-35877528D03*
D10*
X13652500Y-35877528D03*
D12*
X11112500Y-30797528D03*
X4762500Y-33337528D03*
%TD*%
D13*
%TO.C,D155*%
X215960000Y-98857500D03*
X215960000Y-97357500D03*
X210760000Y-97357500D03*
X210760000Y-98857500D03*
%TD*%
D10*
%TO.C,SW38*%
X98742500Y-54927500D03*
D11*
X103822500Y-54927500D03*
D10*
X108902500Y-54927500D03*
D12*
X106362500Y-49847500D03*
X100012500Y-52387500D03*
%TD*%
D10*
%TO.C,SW52*%
X151130000Y-93027500D03*
D11*
X156210000Y-93027500D03*
D10*
X161290000Y-93027500D03*
D12*
X158750000Y-87947500D03*
X152400000Y-90487500D03*
%TD*%
D10*
%TO.C,SW53*%
X160655000Y-112077500D03*
D11*
X165735000Y-112077500D03*
D10*
X170815000Y-112077500D03*
D12*
X168275000Y-106997500D03*
X161925000Y-109537500D03*
%TD*%
D13*
%TO.C,D105*%
X39747500Y-79807500D03*
X39747500Y-78307500D03*
X34547500Y-78307500D03*
X34547500Y-79807500D03*
%TD*%
%TO.C,D112*%
X63560000Y-98857500D03*
X63560000Y-97357500D03*
X58360000Y-97357500D03*
X58360000Y-98857500D03*
%TD*%
%TO.C,D127*%
X115947500Y-79807500D03*
X115947500Y-78307500D03*
X110747500Y-78307500D03*
X110747500Y-79807500D03*
%TD*%
%TO.C,D135*%
X149285000Y-117907500D03*
X149285000Y-116407500D03*
X144085000Y-116407500D03*
X144085000Y-117907500D03*
%TD*%
%TO.C,D131*%
X125472500Y-41707500D03*
X125472500Y-40207500D03*
X120272500Y-40207500D03*
X120272500Y-41707500D03*
%TD*%
D10*
%TO.C,SW32*%
X79692500Y-54927500D03*
D11*
X84772500Y-54927500D03*
D10*
X89852500Y-54927500D03*
D12*
X87312500Y-49847500D03*
X80962500Y-52387500D03*
%TD*%
D10*
%TO.C,SW1*%
X-15557500Y-35877500D03*
D11*
X-10477500Y-35877500D03*
D10*
X-5397500Y-35877500D03*
D12*
X-7937500Y-30797500D03*
X-14287500Y-33337500D03*
%TD*%
D13*
%TO.C,D133*%
X134997500Y-79807500D03*
X134997500Y-78307500D03*
X129797500Y-78307500D03*
X129797500Y-79807500D03*
%TD*%
%TO.C,D126*%
X106422500Y-60757500D03*
X106422500Y-59257500D03*
X101222500Y-59257500D03*
X101222500Y-60757500D03*
%TD*%
D10*
%TO.C,SW60*%
X294005000Y-131127500D03*
D11*
X299085000Y-131127500D03*
D10*
X304165000Y-131127500D03*
D12*
X301625000Y-126047500D03*
X295275000Y-128587500D03*
%TD*%
D10*
%TO.C,SW10*%
X17780000Y-93027500D03*
D11*
X22860000Y-93027500D03*
D10*
X27940000Y-93027500D03*
D12*
X25400000Y-87947500D03*
X19050000Y-90487500D03*
%TD*%
D10*
%TO.C,SW57*%
X165417500Y-74136250D03*
D11*
X170497500Y-74136250D03*
D10*
X175577500Y-74136250D03*
D12*
X173037500Y-69056250D03*
X166687500Y-71596250D03*
%TD*%
D10*
%TO.C,SW4*%
X-8413750Y-93027500D03*
D11*
X-3333750Y-93027500D03*
D10*
X1746250Y-93027500D03*
D12*
X-793750Y-87947500D03*
X-7143750Y-90487500D03*
%TD*%
D10*
%TO.C,SW41*%
X122555000Y-112077500D03*
D11*
X127635000Y-112077500D03*
D10*
X132715000Y-112077500D03*
D12*
X130175000Y-106997500D03*
X123825000Y-109537500D03*
%TD*%
D13*
%TO.C,D95*%
X4062500Y-117902500D03*
X4062500Y-116402500D03*
X-1137500Y-116402500D03*
X-1137500Y-117902500D03*
%TD*%
D10*
%TO.C,SW74*%
X213042500Y-54927500D03*
D11*
X218122500Y-54927500D03*
D10*
X223202500Y-54927500D03*
D12*
X220662500Y-49847500D03*
X214312500Y-52387500D03*
%TD*%
D10*
%TO.C,SW48*%
X248761250Y-131127500D03*
D11*
X253841250Y-131127500D03*
D10*
X258921250Y-131127500D03*
D12*
X256381250Y-126047500D03*
X250031250Y-128587500D03*
%TD*%
D13*
%TO.C,D156*%
X232628750Y-136957500D03*
X232628750Y-135457500D03*
X227428750Y-135457500D03*
X227428750Y-136957500D03*
%TD*%
%TO.C,D177*%
X320568125Y-60598750D03*
X320568125Y-59098750D03*
X315368125Y-59098750D03*
X315368125Y-60598750D03*
%TD*%
D10*
%TO.C,SW22*%
X55880000Y-93027500D03*
D11*
X60960000Y-93027500D03*
D10*
X66040000Y-93027500D03*
D12*
X63500000Y-87947500D03*
X57150000Y-90487500D03*
%TD*%
D10*
%TO.C,SW55*%
X155892500Y-36036250D03*
D11*
X160972500Y-36036250D03*
D10*
X166052500Y-36036250D03*
D12*
X163512500Y-30956250D03*
X157162500Y-33496250D03*
%TD*%
D10*
%TO.C,SW43*%
X117792500Y-35877500D03*
D11*
X122872500Y-35877500D03*
D10*
X127952500Y-35877500D03*
D12*
X125412500Y-30797500D03*
X119062500Y-33337500D03*
%TD*%
D10*
%TO.C,SW72*%
X294005000Y-112077500D03*
D11*
X299085000Y-112077500D03*
D10*
X304165000Y-112077500D03*
D12*
X301625000Y-106997500D03*
X295275000Y-109537500D03*
%TD*%
D13*
%TO.C,D92*%
X-7877500Y-41707500D03*
X-7877500Y-40207500D03*
X-13077500Y-40207500D03*
X-13077500Y-41707500D03*
%TD*%
D10*
%TO.C,SW14*%
X22542500Y-54927500D03*
D11*
X27622500Y-54927500D03*
D10*
X32702500Y-54927500D03*
D12*
X30162500Y-49847500D03*
X23812500Y-52387500D03*
%TD*%
D10*
%TO.C,SW3*%
X-10795000Y-73977500D03*
D11*
X-5715000Y-73977500D03*
D10*
X-635000Y-73977500D03*
D12*
X-3175000Y-68897500D03*
X-9525000Y-71437500D03*
%TD*%
D14*
%TO.C,SW76*%
X232416250Y-86027500D03*
D11*
X232416250Y-101267500D03*
D10*
X239236250Y-93027500D03*
D11*
X244316250Y-93027500D03*
D10*
X249396250Y-93027500D03*
D14*
X256216250Y-86027500D03*
D11*
X256216250Y-101267500D03*
D12*
X246856250Y-87947500D03*
X240506250Y-90487500D03*
%TD*%
D10*
%TO.C,SW29*%
X84455000Y-112077500D03*
D11*
X89535000Y-112077500D03*
D10*
X94615000Y-112077500D03*
D12*
X92075000Y-106997500D03*
X85725000Y-109537500D03*
%TD*%
D13*
%TO.C,D123*%
X101660000Y-98857500D03*
X101660000Y-97357500D03*
X96460000Y-97357500D03*
X96460000Y-98857500D03*
%TD*%
%TO.C,D161*%
X242153750Y-117902500D03*
X242153750Y-116402500D03*
X236953750Y-116402500D03*
X236953750Y-117902500D03*
%TD*%
%TO.C,D152*%
X201672500Y-41707500D03*
X201672500Y-40207500D03*
X196472500Y-40207500D03*
X196472500Y-41707500D03*
%TD*%
D10*
%TO.C,SW86*%
X293766875Y-54768750D03*
D11*
X298846875Y-54768750D03*
D10*
X303926875Y-54768750D03*
D12*
X301386875Y-49688750D03*
X295036875Y-52228750D03*
%TD*%
D13*
%TO.C,D100*%
X25460000Y-98857500D03*
X25460000Y-97357500D03*
X20260000Y-97357500D03*
X20260000Y-98857500D03*
%TD*%
%TO.C,D124*%
X111185000Y-117907500D03*
X111185000Y-116407500D03*
X105985000Y-116407500D03*
X105985000Y-117907500D03*
%TD*%
D10*
%TO.C,SW21*%
X51117500Y-73977500D03*
D11*
X56197500Y-73977500D03*
D10*
X61277500Y-73977500D03*
D12*
X58737500Y-68897500D03*
X52387500Y-71437500D03*
%TD*%
D10*
%TO.C,SW51*%
X146367500Y-73977500D03*
D11*
X151447500Y-73977500D03*
D10*
X156527500Y-73977500D03*
D12*
X153987500Y-68897500D03*
X147637500Y-71437500D03*
%TD*%
D10*
%TO.C,SW37*%
X98742500Y-35877500D03*
D11*
X103822500Y-35877500D03*
D10*
X108902500Y-35877500D03*
D12*
X106362500Y-30797500D03*
X100012500Y-33337500D03*
%TD*%
D13*
%TO.C,D98*%
X11172500Y-60757500D03*
X11172500Y-59257500D03*
X5972500Y-59257500D03*
X5972500Y-60757500D03*
%TD*%
D10*
%TO.C,SW47*%
X141605000Y-112077500D03*
D11*
X146685000Y-112077500D03*
D10*
X151765000Y-112077500D03*
D12*
X149225000Y-106997500D03*
X142875000Y-109537500D03*
%TD*%
D13*
%TO.C,D147*%
X182622500Y-60757500D03*
X182622500Y-59257500D03*
X177422500Y-59257500D03*
X177422500Y-60757500D03*
%TD*%
D10*
%TO.C,SW25*%
X60642500Y-35877500D03*
D11*
X65722500Y-35877500D03*
D10*
X70802500Y-35877500D03*
D12*
X68262500Y-30797500D03*
X61912500Y-33337500D03*
%TD*%
D10*
%TO.C,SW6*%
X-13176250Y-131127500D03*
D11*
X-8096250Y-131127500D03*
D10*
X-3016250Y-131127500D03*
D12*
X-5556250Y-126047500D03*
X-11906250Y-128587500D03*
%TD*%
D10*
%TO.C,SW70*%
X208280000Y-93027500D03*
D11*
X213360000Y-93027500D03*
D10*
X218440000Y-93027500D03*
D12*
X215900000Y-87947500D03*
X209550000Y-90487500D03*
%TD*%
D13*
%TO.C,D102*%
X18316250Y-136957500D03*
X18316250Y-135457500D03*
X13116250Y-135457500D03*
X13116250Y-136957500D03*
%TD*%
%TO.C,D129*%
X130235000Y-117907500D03*
X130235000Y-116407500D03*
X125035000Y-116407500D03*
X125035000Y-117907500D03*
%TD*%
%TO.C,D146*%
X182622500Y-41707500D03*
X182622500Y-40207500D03*
X177422500Y-40207500D03*
X177422500Y-41707500D03*
%TD*%
%TO.C,D139*%
X158810000Y-98857500D03*
X158810000Y-97357500D03*
X153610000Y-97357500D03*
X153610000Y-98857500D03*
%TD*%
%TO.C,D113*%
X73085000Y-117907500D03*
X73085000Y-116407500D03*
X67885000Y-116407500D03*
X67885000Y-117907500D03*
%TD*%
%TO.C,D115*%
X68322500Y-41707500D03*
X68322500Y-40207500D03*
X63122500Y-40207500D03*
X63122500Y-41707500D03*
%TD*%
%TO.C,D108*%
X42128750Y-136957500D03*
X42128750Y-135457500D03*
X36928750Y-135457500D03*
X36928750Y-136957500D03*
%TD*%
%TO.C,D145*%
X187385000Y-117907500D03*
X187385000Y-116407500D03*
X182185000Y-116407500D03*
X182185000Y-117907500D03*
%TD*%
D10*
%TO.C,SW26*%
X60642500Y-54927500D03*
D11*
X65722500Y-54927500D03*
D10*
X70802500Y-54927500D03*
D12*
X68262500Y-49847500D03*
X61912500Y-52387500D03*
%TD*%
D10*
%TO.C,SW50*%
X136842500Y-54927500D03*
D11*
X141922500Y-54927500D03*
D10*
X147002500Y-54927500D03*
D12*
X144462500Y-49847500D03*
X138112500Y-52387500D03*
%TD*%
D13*
%TO.C,D106*%
X44510000Y-98857500D03*
X44510000Y-97357500D03*
X39310000Y-97357500D03*
X39310000Y-98857500D03*
%TD*%
D10*
%TO.C,SW59*%
X179705000Y-112077500D03*
D11*
X184785000Y-112077500D03*
D10*
X189865000Y-112077500D03*
D12*
X187325000Y-106997500D03*
X180975000Y-109537500D03*
%TD*%
D13*
%TO.C,D149*%
X196910000Y-98857500D03*
X196910000Y-97357500D03*
X191710000Y-97357500D03*
X191710000Y-98857500D03*
%TD*%
D10*
%TO.C,SW89*%
X251201816Y-35718750D03*
D11*
X256281816Y-35718750D03*
D10*
X261361816Y-35718750D03*
D12*
X258821816Y-30638750D03*
X252471816Y-33178750D03*
%TD*%
D13*
%TO.C,D162*%
X256441250Y-136957500D03*
X256441250Y-135457500D03*
X251241250Y-135457500D03*
X251241250Y-136957500D03*
%TD*%
%TO.C,D143*%
X173097500Y-79966250D03*
X173097500Y-78466250D03*
X167897500Y-78466250D03*
X167897500Y-79966250D03*
%TD*%
D10*
%TO.C,SW75*%
X222567500Y-73977500D03*
D11*
X227647500Y-73977500D03*
D10*
X232727500Y-73977500D03*
D12*
X230187500Y-68897500D03*
X223837500Y-71437500D03*
%TD*%
D13*
%TO.C,D142*%
X163572500Y-60916250D03*
X163572500Y-59416250D03*
X158372500Y-59416250D03*
X158372500Y-60916250D03*
%TD*%
%TO.C,D128*%
X120710000Y-98857500D03*
X120710000Y-97357500D03*
X115510000Y-97357500D03*
X115510000Y-98857500D03*
%TD*%
%TO.C,D107*%
X54035000Y-117907500D03*
X54035000Y-116407500D03*
X48835000Y-116407500D03*
X48835000Y-117907500D03*
%TD*%
D10*
%TO.C,SW13*%
X22542500Y-35877500D03*
D11*
X27622500Y-35877500D03*
D10*
X32702500Y-35877500D03*
D12*
X30162500Y-30797500D03*
X23812500Y-33337500D03*
%TD*%
D10*
%TO.C,SW28*%
X74930000Y-93027500D03*
D11*
X80010000Y-93027500D03*
D10*
X85090000Y-93027500D03*
D12*
X82550000Y-87947500D03*
X76200000Y-90487500D03*
%TD*%
D13*
%TO.C,D166*%
X258881816Y-41548750D03*
X258881816Y-40048750D03*
X253681816Y-40048750D03*
X253681816Y-41548750D03*
%TD*%
D10*
%TO.C,SW17*%
X46355000Y-112077500D03*
D11*
X51435000Y-112077500D03*
D10*
X56515000Y-112077500D03*
D12*
X53975000Y-106997500D03*
X47625000Y-109537500D03*
%TD*%
D13*
%TO.C,D178*%
X320568125Y-79648750D03*
X320568125Y-78148750D03*
X315368125Y-78148750D03*
X315368125Y-79648750D03*
%TD*%
%TO.C,D111*%
X58797500Y-79807500D03*
X58797500Y-78307500D03*
X53597500Y-78307500D03*
X53597500Y-79807500D03*
%TD*%
D10*
%TO.C,SW65*%
X198755000Y-112077500D03*
D11*
X203835000Y-112077500D03*
D10*
X208915000Y-112077500D03*
D12*
X206375000Y-106997500D03*
X200025000Y-109537500D03*
%TD*%
D13*
%TO.C,D173*%
X301446875Y-79648750D03*
X301446875Y-78148750D03*
X296246875Y-78148750D03*
X296246875Y-79648750D03*
%TD*%
%TO.C,D122*%
X96897500Y-79807500D03*
X96897500Y-78307500D03*
X91697500Y-78307500D03*
X91697500Y-79807500D03*
%TD*%
D10*
%TO.C,SW69*%
X203517500Y-73977500D03*
D11*
X208597500Y-73977500D03*
D10*
X213677500Y-73977500D03*
D12*
X211137500Y-68897500D03*
X204787500Y-71437500D03*
%TD*%
D10*
%TO.C,SW77*%
X274788125Y-35718750D03*
D11*
X279868125Y-35718750D03*
D10*
X284948125Y-35718750D03*
D12*
X282408125Y-30638750D03*
X276058125Y-33178750D03*
%TD*%
D13*
%TO.C,D136*%
X144522500Y-41707500D03*
X144522500Y-40207500D03*
X139322500Y-40207500D03*
X139322500Y-41707500D03*
%TD*%
%TO.C,D134*%
X139760000Y-98857500D03*
X139760000Y-97357500D03*
X134560000Y-97357500D03*
X134560000Y-98857500D03*
%TD*%
D10*
%TO.C,SW12*%
X10636250Y-131127500D03*
D11*
X15716250Y-131127500D03*
D10*
X20796250Y-131127500D03*
D12*
X18256250Y-126047500D03*
X11906250Y-128587500D03*
%TD*%
D10*
%TO.C,SW35*%
X103505000Y-112077500D03*
D11*
X108585000Y-112077500D03*
D10*
X113665000Y-112077500D03*
D12*
X111125000Y-106997500D03*
X104775000Y-109537500D03*
%TD*%
D13*
%TO.C,D150*%
X206435000Y-117907500D03*
X206435000Y-116407500D03*
X201235000Y-116407500D03*
X201235000Y-117907500D03*
%TD*%
D10*
%TO.C,SW39*%
X108267500Y-73977500D03*
D11*
X113347500Y-73977500D03*
D10*
X118427500Y-73977500D03*
D12*
X115887500Y-68897500D03*
X109537500Y-71437500D03*
%TD*%
D13*
%TO.C,D158*%
X220722500Y-60757500D03*
X220722500Y-59257500D03*
X215522500Y-59257500D03*
X215522500Y-60757500D03*
%TD*%
%TO.C,D114*%
X65941250Y-136957500D03*
X65941250Y-135457500D03*
X60741250Y-135457500D03*
X60741250Y-136957500D03*
%TD*%
D17*
%TO.C,C59*%
X170250000Y-98750000D03*
X170250000Y-96850000D03*
%TD*%
D15*
%TO.C,D50*%
X132397500Y-58737500D03*
D16*
X132397500Y-51117500D03*
%TD*%
D17*
%TO.C,C42*%
X313000000Y-79750000D03*
X313000000Y-77850000D03*
%TD*%
D15*
%TO.C,D36*%
X196691250Y-134937500D03*
D16*
X196691250Y-127317500D03*
%TD*%
D15*
%TO.C,D43*%
X113347500Y-39687500D03*
D16*
X113347500Y-32067500D03*
%TD*%
D18*
%TO.C,R1*%
X286500000Y-52250000D03*
X286500000Y-50425000D03*
%TD*%
D19*
%TO.C,D86*%
X294690000Y-45500000D03*
D16*
X302310000Y-45500000D03*
%TD*%
D15*
%TO.C,D51*%
X141922500Y-77787500D03*
D16*
X141922500Y-70167500D03*
%TD*%
D15*
%TO.C,D70*%
X203835000Y-96837500D03*
D16*
X203835000Y-89217500D03*
%TD*%
D17*
%TO.C,C19*%
X60750000Y-60750000D03*
X60750000Y-58850000D03*
%TD*%
D15*
%TO.C,D21*%
X46672500Y-77787500D03*
D16*
X46672500Y-70167500D03*
%TD*%
D17*
%TO.C,C56*%
X239500000Y-99000000D03*
X239500000Y-97100000D03*
%TD*%
D15*
%TO.C,D35*%
X99060000Y-115887500D03*
D16*
X99060000Y-108267500D03*
%TD*%
D17*
%TO.C,C7*%
X194250000Y-41750000D03*
X194250000Y-39850000D03*
%TD*%
%TO.C,C36*%
X241750000Y-60750000D03*
X241750000Y-58850000D03*
%TD*%
%TO.C,C49*%
X165500000Y-80000000D03*
X165500000Y-78100000D03*
%TD*%
%TO.C,C50*%
X146500000Y-79750000D03*
X146500000Y-77850000D03*
%TD*%
D15*
%TO.C,D79*%
X227647500Y-39687500D03*
D16*
X227647500Y-32067500D03*
%TD*%
D15*
%TO.C,D27*%
X65722500Y-77787500D03*
D16*
X65722500Y-70167500D03*
%TD*%
D17*
%TO.C,C83*%
X130000000Y-136750000D03*
X130000000Y-134850000D03*
%TD*%
D15*
%TO.C,D88*%
X327500000Y-77628750D03*
D16*
X327500000Y-70008750D03*
%TD*%
D15*
%TO.C,D24*%
X53816250Y-134937500D03*
D16*
X53816250Y-127317500D03*
%TD*%
D15*
%TO.C,D71*%
X230028750Y-115887500D03*
D16*
X230028750Y-108267500D03*
%TD*%
D17*
%TO.C,C64*%
X75000000Y-98750000D03*
X75000000Y-96850000D03*
%TD*%
D15*
%TO.C,D66*%
X308610000Y-134937500D03*
D16*
X308610000Y-127317500D03*
%TD*%
D17*
%TO.C,C27*%
X60750000Y-41750000D03*
X60750000Y-39850000D03*
%TD*%
%TO.C,C61*%
X132250000Y-98750000D03*
X132250000Y-96850000D03*
%TD*%
%TO.C,C2*%
X294000000Y-41500000D03*
X294000000Y-39600000D03*
%TD*%
%TO.C,C87*%
X275250000Y-137000000D03*
X275250000Y-135100000D03*
%TD*%
D15*
%TO.C,D64*%
X184785000Y-96837500D03*
D16*
X184785000Y-89217500D03*
%TD*%
D17*
%TO.C,C32*%
X-10500000Y-79750000D03*
X-10500000Y-77850000D03*
%TD*%
D15*
%TO.C,D60*%
X289560000Y-134937500D03*
D16*
X289560000Y-127317500D03*
%TD*%
D15*
%TO.C,D42*%
X220503750Y-134937500D03*
D16*
X220503750Y-127317500D03*
%TD*%
D17*
%TO.C,C18*%
X80000000Y-60750000D03*
X80000000Y-58850000D03*
%TD*%
D15*
%TO.C,D73*%
X208597500Y-39687500D03*
D16*
X208597500Y-32067500D03*
%TD*%
D15*
%TO.C,D29*%
X80010000Y-115887500D03*
D16*
X80010000Y-108267500D03*
%TD*%
D15*
%TO.C,D39*%
X103822500Y-77787500D03*
D16*
X103822500Y-70167500D03*
%TD*%
D15*
%TO.C,D54*%
X270510000Y-134937500D03*
D16*
X270510000Y-127317500D03*
%TD*%
D17*
%TO.C,C21*%
X22750000Y-60750000D03*
X22750000Y-58850000D03*
%TD*%
D15*
%TO.C,D67*%
X189547500Y-39687500D03*
D16*
X189547500Y-32067500D03*
%TD*%
D17*
%TO.C,C28*%
X70250000Y-79750000D03*
X70250000Y-77850000D03*
%TD*%
D15*
%TO.C,D38*%
X94297500Y-58737500D03*
D16*
X94297500Y-51117500D03*
%TD*%
D15*
%TO.C,D47*%
X137160000Y-115887500D03*
D16*
X137160000Y-108267500D03*
%TD*%
D17*
%TO.C,C23*%
X-15250000Y-60750000D03*
X-15250000Y-58850000D03*
%TD*%
D15*
%TO.C,D2*%
X-20002500Y-58737500D03*
D16*
X-20002500Y-51117500D03*
%TD*%
D17*
%TO.C,C78*%
X46500000Y-118000000D03*
X46500000Y-116100000D03*
%TD*%
%TO.C,C1*%
X-15250000Y-41700000D03*
X-15250000Y-39800000D03*
%TD*%
%TO.C,C68*%
X294250000Y-118000000D03*
X294250000Y-116100000D03*
%TD*%
D15*
%TO.C,D65*%
X194310000Y-115887500D03*
D16*
X194310000Y-108267500D03*
%TD*%
D17*
%TO.C,C84*%
X201250000Y-137000000D03*
X201250000Y-135100000D03*
%TD*%
%TO.C,C44*%
X275000000Y-79750000D03*
X275000000Y-77850000D03*
%TD*%
D15*
%TO.C,D48*%
X244316250Y-134937500D03*
D16*
X244316250Y-127317500D03*
%TD*%
D17*
%TO.C,C85*%
X225250000Y-137000000D03*
X225250000Y-135100000D03*
%TD*%
%TO.C,C55*%
X-3500000Y-118000000D03*
X-3500000Y-116100000D03*
%TD*%
%TO.C,C89*%
X313250000Y-137000000D03*
X313250000Y-135100000D03*
%TD*%
D15*
%TO.C,D76*%
X234750000Y-96810000D03*
D16*
X234750000Y-89190000D03*
%TD*%
D17*
%TO.C,C81*%
X34750000Y-137000000D03*
X34750000Y-135100000D03*
%TD*%
%TO.C,C10*%
X137000000Y-41750000D03*
X137000000Y-39850000D03*
%TD*%
%TO.C,C45*%
X246500000Y-79750000D03*
X246500000Y-77850000D03*
%TD*%
D15*
%TO.C,D82*%
X270343125Y-77628750D03*
D16*
X270343125Y-70008750D03*
%TD*%
D17*
%TO.C,C31*%
X13250000Y-80000000D03*
X13250000Y-78100000D03*
%TD*%
%TO.C,C43*%
X294000000Y-79750000D03*
X294000000Y-77850000D03*
%TD*%
%TO.C,C88*%
X294250000Y-137000000D03*
X294250000Y-135100000D03*
%TD*%
D15*
%TO.C,D14*%
X18097500Y-58737500D03*
D16*
X18097500Y-51117500D03*
%TD*%
D17*
%TO.C,C47*%
X203750000Y-79750000D03*
X203750000Y-77850000D03*
%TD*%
%TO.C,C86*%
X249000000Y-137000000D03*
X249000000Y-135100000D03*
%TD*%
%TO.C,C66*%
X37000000Y-98750000D03*
X37000000Y-96850000D03*
%TD*%
%TO.C,C39*%
X175250000Y-60750000D03*
X175250000Y-58850000D03*
%TD*%
%TO.C,C3*%
X275000000Y-41500000D03*
X275000000Y-39600000D03*
%TD*%
%TO.C,C54*%
X18000000Y-98750000D03*
X18000000Y-96850000D03*
%TD*%
%TO.C,C35*%
X275000000Y-60750000D03*
X275000000Y-58850000D03*
%TD*%
%TO.C,C37*%
X213250000Y-60750000D03*
X213250000Y-58850000D03*
%TD*%
D15*
%TO.C,D8*%
X-952500Y-58737500D03*
D16*
X-952500Y-51117500D03*
%TD*%
D15*
%TO.C,D33*%
X84772500Y-77787500D03*
D16*
X84772500Y-70167500D03*
%TD*%
D17*
%TO.C,C62*%
X113250000Y-98750000D03*
X113250000Y-96850000D03*
%TD*%
D15*
%TO.C,D68*%
X189547500Y-58737500D03*
D16*
X189547500Y-51117500D03*
%TD*%
D15*
%TO.C,D22*%
X51435000Y-96837500D03*
D16*
X51435000Y-89217500D03*
%TD*%
D15*
%TO.C,D55*%
X151447500Y-39846250D03*
D16*
X151447500Y-32226250D03*
%TD*%
D15*
%TO.C,D58*%
X165735000Y-96837500D03*
D16*
X165735000Y-89217500D03*
%TD*%
D17*
%TO.C,C9*%
X156000000Y-42000000D03*
X156000000Y-40100000D03*
%TD*%
D15*
%TO.C,D56*%
X151447500Y-58896250D03*
D16*
X151447500Y-51276250D03*
%TD*%
D17*
%TO.C,C38*%
X194250000Y-60750000D03*
X194250000Y-58850000D03*
%TD*%
%TO.C,C41*%
X-8250000Y-98750000D03*
X-8250000Y-96850000D03*
%TD*%
%TO.C,C75*%
X103750000Y-118000000D03*
X103750000Y-116100000D03*
%TD*%
%TO.C,C5*%
X232250000Y-41500000D03*
X232250000Y-39600000D03*
%TD*%
%TO.C,C79*%
X27250000Y-118000000D03*
X27250000Y-116100000D03*
%TD*%
%TO.C,C12*%
X41750000Y-41700000D03*
X41750000Y-39800000D03*
%TD*%
%TO.C,C82*%
X58500000Y-137000000D03*
X58500000Y-135100000D03*
%TD*%
D15*
%TO.C,D89*%
X246756824Y-39528720D03*
D16*
X246756824Y-31908720D03*
%TD*%
D15*
%TO.C,D80*%
X237250000Y-58560000D03*
D16*
X237250000Y-50940000D03*
%TD*%
D15*
%TO.C,D37*%
X94297500Y-39687500D03*
D16*
X94297500Y-32067500D03*
%TD*%
D15*
%TO.C,D9*%
X8572500Y-77787500D03*
D16*
X8572500Y-70167500D03*
%TD*%
D15*
%TO.C,D30*%
X125253750Y-134937500D03*
D16*
X125253750Y-127317500D03*
%TD*%
D17*
%TO.C,C24*%
X313000000Y-41500000D03*
X313000000Y-39600000D03*
%TD*%
%TO.C,C11*%
X118000000Y-41750000D03*
X118000000Y-39850000D03*
%TD*%
%TO.C,C52*%
X108250000Y-79750000D03*
X108250000Y-77850000D03*
%TD*%
%TO.C,C25*%
X99000000Y-41750000D03*
X99000000Y-39850000D03*
%TD*%
%TO.C,C17*%
X99000000Y-60750000D03*
X99000000Y-58850000D03*
%TD*%
D15*
%TO.C,D7*%
X-952500Y-39687500D03*
D16*
X-952500Y-32067500D03*
%TD*%
D15*
%TO.C,D11*%
X22860000Y-115887500D03*
D16*
X22860000Y-108267500D03*
%TD*%
D15*
%TO.C,D81*%
X242000000Y-77787500D03*
D16*
X242000000Y-70167500D03*
%TD*%
D17*
%TO.C,C65*%
X56000000Y-98750000D03*
X56000000Y-96850000D03*
%TD*%
%TO.C,C48*%
X184750000Y-79750000D03*
X184750000Y-77850000D03*
%TD*%
D15*
%TO.C,D31*%
X75247500Y-39687500D03*
D16*
X75247500Y-32067500D03*
%TD*%
D15*
%TO.C,D13*%
X18097500Y-39687500D03*
D16*
X18097500Y-32067500D03*
%TD*%
D15*
%TO.C,D25*%
X56197500Y-39687500D03*
D16*
X56197500Y-32067500D03*
%TD*%
D15*
%TO.C,D1*%
X-20002500Y-39687500D03*
D16*
X-20002500Y-32067500D03*
%TD*%
D15*
%TO.C,D28*%
X70485000Y-96837500D03*
D16*
X70485000Y-89217500D03*
%TD*%
D15*
%TO.C,D57*%
X160972500Y-77946250D03*
D16*
X160972500Y-70326250D03*
%TD*%
D17*
%TO.C,C33*%
X313000000Y-60500000D03*
X313000000Y-58600000D03*
%TD*%
%TO.C,C51*%
X127500000Y-79750000D03*
X127500000Y-77850000D03*
%TD*%
D15*
%TO.C,D19*%
X37147500Y-39687500D03*
D16*
X37147500Y-32067500D03*
%TD*%
D17*
%TO.C,C63*%
X94250000Y-98750000D03*
X94250000Y-96850000D03*
%TD*%
D15*
%TO.C,D6*%
X-17621250Y-134937500D03*
D16*
X-17621250Y-127317500D03*
%TD*%
D15*
%TO.C,D18*%
X30003750Y-134937500D03*
D16*
X30003750Y-127317500D03*
%TD*%
D17*
%TO.C,C60*%
X151250000Y-98750000D03*
X151250000Y-96850000D03*
%TD*%
D15*
%TO.C,D41*%
X118110000Y-115887500D03*
D16*
X118110000Y-108267500D03*
%TD*%
D17*
%TO.C,C26*%
X80000000Y-41750000D03*
X80000000Y-39850000D03*
%TD*%
D15*
%TO.C,D52*%
X146685000Y-96837500D03*
D16*
X146685000Y-89217500D03*
%TD*%
D17*
%TO.C,C13*%
X22750000Y-41700000D03*
X22750000Y-39800000D03*
%TD*%
%TO.C,C20*%
X41750000Y-60750000D03*
X41750000Y-58850000D03*
%TD*%
%TO.C,C4*%
X251500000Y-41500000D03*
X251500000Y-39600000D03*
%TD*%
%TO.C,C67*%
X-13000000Y-137000000D03*
X-13000000Y-135100000D03*
%TD*%
D15*
%TO.C,D17*%
X41910000Y-115887500D03*
D16*
X41910000Y-108267500D03*
%TD*%
D17*
%TO.C,C14*%
X3750000Y-41700000D03*
X3750000Y-39800000D03*
%TD*%
%TO.C,C53*%
X89500000Y-79750000D03*
X89500000Y-77850000D03*
%TD*%
D15*
%TO.C,D63*%
X180022500Y-77787500D03*
D16*
X180022500Y-70167500D03*
%TD*%
D15*
%TO.C,D5*%
X-8096250Y-115887500D03*
D16*
X-8096250Y-108267500D03*
%TD*%
D17*
%TO.C,C70*%
X199000000Y-118000000D03*
X199000000Y-116100000D03*
%TD*%
D15*
%TO.C,D59*%
X175260000Y-115887500D03*
D16*
X175260000Y-108267500D03*
%TD*%
D17*
%TO.C,C29*%
X51250000Y-79750000D03*
X51250000Y-77850000D03*
%TD*%
D15*
%TO.C,D78*%
X270343125Y-58578750D03*
D16*
X270343125Y-50958750D03*
%TD*%
D19*
%TO.C,D85*%
X294690000Y-26250000D03*
D16*
X302310000Y-26250000D03*
%TD*%
D17*
%TO.C,C71*%
X180000000Y-118000000D03*
X180000000Y-116100000D03*
%TD*%
%TO.C,C72*%
X160750000Y-118000000D03*
X160750000Y-116100000D03*
%TD*%
D15*
%TO.C,D20*%
X37147500Y-58737500D03*
D16*
X37147500Y-51117500D03*
%TD*%
D15*
%TO.C,D3*%
X-15240000Y-77787500D03*
D16*
X-15240000Y-70167500D03*
%TD*%
D15*
%TO.C,D23*%
X60960000Y-115887500D03*
D16*
X60960000Y-108267500D03*
%TD*%
D15*
%TO.C,D44*%
X113347500Y-58737500D03*
D16*
X113347500Y-51117500D03*
%TD*%
D17*
%TO.C,C22*%
X3750000Y-60750000D03*
X3750000Y-58850000D03*
%TD*%
%TO.C,C46*%
X222750000Y-79750000D03*
X222750000Y-77850000D03*
%TD*%
D15*
%TO.C,D4*%
X-12858750Y-96837500D03*
D16*
X-12858750Y-89217500D03*
%TD*%
D15*
%TO.C,D77*%
X270343125Y-39290625D03*
D16*
X270343125Y-31670625D03*
%TD*%
D17*
%TO.C,C58*%
X189500000Y-98950000D03*
X189500000Y-97050000D03*
%TD*%
D15*
%TO.C,D49*%
X132397500Y-39687500D03*
D16*
X132397500Y-32067500D03*
%TD*%
D15*
%TO.C,D69*%
X199072500Y-77787500D03*
D16*
X199072500Y-70167500D03*
%TD*%
D17*
%TO.C,C40*%
X137000000Y-60750000D03*
X137000000Y-58850000D03*
%TD*%
%TO.C,C8*%
X175250000Y-41750000D03*
X175250000Y-39850000D03*
%TD*%
D15*
%TO.C,D53*%
X156210000Y-115887500D03*
D16*
X156210000Y-108267500D03*
%TD*%
D20*
%TO.C,U1*%
X308030000Y-19130000D03*
D16*
X308030000Y-21670000D03*
D21*
X308030000Y-24210000D03*
D16*
X308030000Y-26750000D03*
X308030000Y-29290000D03*
X308030000Y-31830000D03*
X308030000Y-34370000D03*
D21*
X308030000Y-36910000D03*
D16*
X308030000Y-39450000D03*
X308030000Y-41990000D03*
X308030000Y-44530000D03*
X308030000Y-47070000D03*
D21*
X308030000Y-49610000D03*
D16*
X308030000Y-52150000D03*
X308030000Y-54690000D03*
X308030000Y-57230000D03*
X308030000Y-59770000D03*
D21*
X308030000Y-62310000D03*
D16*
X308030000Y-64850000D03*
X308030000Y-67390000D03*
X290250000Y-67390000D03*
X290250000Y-64850000D03*
D22*
X290250000Y-62310000D03*
D16*
X290250000Y-59770000D03*
X290250000Y-57230000D03*
X290250000Y-54690000D03*
X290250000Y-52150000D03*
D22*
X290250000Y-49610000D03*
D16*
X290250000Y-47070000D03*
X290250000Y-44530000D03*
X290250000Y-41990000D03*
X290250000Y-39450000D03*
D22*
X290250000Y-36910000D03*
D16*
X290250000Y-34370000D03*
X290250000Y-31830000D03*
X290250000Y-29290000D03*
X290250000Y-26750000D03*
D22*
X290250000Y-24210000D03*
D16*
X290250000Y-21670000D03*
X290250000Y-19130000D03*
%TD*%
D15*
%TO.C,D45*%
X122872500Y-77787500D03*
D16*
X122872500Y-70167500D03*
%TD*%
D17*
%TO.C,C69*%
X234750000Y-118000000D03*
X234750000Y-116100000D03*
%TD*%
D15*
%TO.C,D12*%
X6191250Y-134937500D03*
D16*
X6191250Y-127317500D03*
%TD*%
D15*
%TO.C,D32*%
X75247500Y-58737500D03*
D16*
X75247500Y-51117500D03*
%TD*%
D15*
%TO.C,D46*%
X127635000Y-96837500D03*
D16*
X127635000Y-89217500D03*
%TD*%
D15*
%TO.C,D74*%
X208597500Y-58737500D03*
D16*
X208597500Y-51117500D03*
%TD*%
D15*
%TO.C,D84*%
X327500000Y-58560000D03*
D16*
X327500000Y-50940000D03*
%TD*%
D15*
%TO.C,D10*%
X13335000Y-96837500D03*
D16*
X13335000Y-89217500D03*
%TD*%
D17*
%TO.C,C34*%
X294000000Y-60750000D03*
X294000000Y-58850000D03*
%TD*%
D15*
%TO.C,D40*%
X108585000Y-96837500D03*
D16*
X108585000Y-89217500D03*
%TD*%
D17*
%TO.C,C6*%
X213250000Y-41750000D03*
X213250000Y-39850000D03*
%TD*%
D15*
%TO.C,D26*%
X56197500Y-58737500D03*
D16*
X56197500Y-51117500D03*
%TD*%
D15*
%TO.C,D16*%
X32385000Y-96837500D03*
D16*
X32385000Y-89217500D03*
%TD*%
D15*
%TO.C,D34*%
X89535000Y-96837500D03*
D16*
X89535000Y-89217500D03*
%TD*%
D15*
%TO.C,D61*%
X170497500Y-39687500D03*
D16*
X170497500Y-32067500D03*
%TD*%
D17*
%TO.C,C77*%
X65500000Y-118000000D03*
X65500000Y-116100000D03*
%TD*%
%TO.C,C16*%
X118000000Y-60750000D03*
X118000000Y-58850000D03*
%TD*%
%TO.C,C74*%
X122750000Y-118000000D03*
X122750000Y-116100000D03*
%TD*%
%TO.C,C76*%
X84750000Y-118000000D03*
X84750000Y-116100000D03*
%TD*%
%TO.C,C15*%
X156250000Y-61000000D03*
X156250000Y-59100000D03*
%TD*%
%TO.C,C80*%
X10750000Y-137000000D03*
X10750000Y-135100000D03*
%TD*%
%TO.C,C30*%
X32250000Y-79750000D03*
X32250000Y-77850000D03*
%TD*%
D15*
%TO.C,D62*%
X170497500Y-58737500D03*
D16*
X170497500Y-51117500D03*
%TD*%
D15*
%TO.C,D15*%
X27622500Y-77787500D03*
D16*
X27622500Y-70167500D03*
%TD*%
D17*
%TO.C,C73*%
X141750000Y-118000000D03*
X141750000Y-116100000D03*
%TD*%
D15*
%TO.C,D83*%
X327500000Y-39810000D03*
D16*
X327500000Y-32190000D03*
%TD*%
D15*
%TO.C,D72*%
X289560000Y-115887500D03*
D16*
X289560000Y-108267500D03*
%TD*%
D15*
%TO.C,D75*%
X218122500Y-77787500D03*
D16*
X218122500Y-70167500D03*
%TD*%
D17*
%TO.C,C57*%
X208500000Y-98750000D03*
X208500000Y-96850000D03*
%TD*%
M02*
