M48
; DRILL file {KiCad 9.0.3-9.0.3-0~ubuntu24.04.1} date 2025-07-19T21:47:44-0700
; FORMAT={-:-/ absolute / metric / decimal}
; #@! TF.CreationDate,2025-07-19T21:47:44-07:00
; #@! TF.GenerationSoftware,Kicad,Pcbnew,9.0.3-9.0.3-0~ubuntu24.04.1
; #@! TF.FileFunction,NonPlated,1,2,NPTH
FMAT,2
METRIC
; #@! TA.AperFunction,NonPlated,NPTH,ComponentDrill
T1C1.700
; #@! TA.AperFunction,NonPlated,NPTH,ComponentDrill
T2C3.050
; #@! TA.AperFunction,NonPlated,NPTH,ComponentDrill
T3C4.000
%
G90
G05
T1
X-15.557Y-35.877
X-15.557Y-54.927
X-13.176Y-131.127
X-10.795Y-73.977
X-8.414Y-93.027
X-5.397Y-35.877
X-5.397Y-54.927
X-3.651Y-112.078
X-3.016Y-131.127
X-0.635Y-73.977
X1.746Y-93.027
X3.492Y-35.878
X3.492Y-54.927
X6.509Y-112.078
X10.636Y-131.127
X13.018Y-73.977
X13.652Y-35.878
X13.652Y-54.927
X17.78Y-93.027
X20.796Y-131.127
X22.543Y-35.877
X22.543Y-54.927
X23.177Y-73.977
X27.305Y-112.078
X27.94Y-93.027
X32.067Y-73.977
X32.703Y-35.877
X32.703Y-54.927
X34.449Y-131.127
X36.83Y-93.027
X37.465Y-112.078
X41.593Y-35.877
X41.593Y-54.927
X42.227Y-73.977
X44.609Y-131.127
X46.355Y-112.078
X46.99Y-93.027
X51.117Y-73.977
X51.752Y-35.877
X51.752Y-54.927
X55.88Y-93.027
X56.515Y-112.078
X58.261Y-131.127
X60.642Y-35.877
X60.642Y-54.927
X61.277Y-73.977
X65.405Y-112.078
X66.04Y-93.027
X68.421Y-131.127
X70.167Y-73.977
X70.802Y-35.877
X70.802Y-54.927
X74.93Y-93.027
X75.565Y-112.078
X79.692Y-35.877
X79.692Y-54.927
X80.328Y-73.977
X84.455Y-112.078
X85.09Y-93.027
X89.218Y-73.977
X89.852Y-35.877
X89.852Y-54.927
X93.98Y-93.027
X94.615Y-112.078
X98.742Y-35.877
X98.742Y-54.927
X99.377Y-73.977
X103.505Y-112.078
X104.14Y-93.027
X108.267Y-73.977
X108.902Y-35.877
X108.902Y-54.927
X113.03Y-93.027
X113.665Y-112.078
X117.792Y-35.877
X117.792Y-54.927
X118.427Y-73.977
X122.555Y-112.078
X123.19Y-93.027
X127.317Y-73.977
X127.953Y-35.877
X127.953Y-54.927
X129.699Y-131.127
X132.08Y-93.027
X132.715Y-112.078
X136.843Y-35.877
X136.843Y-54.927
X137.477Y-73.977
X139.859Y-131.127
X141.605Y-112.078
X142.24Y-93.027
X146.368Y-73.977
X147.002Y-35.877
X147.002Y-54.927
X151.13Y-93.027
X151.765Y-112.078
X155.892Y-36.036
X155.892Y-55.086
X156.528Y-73.977
X160.655Y-112.078
X161.29Y-93.027
X165.417Y-74.136
X166.052Y-36.036
X166.052Y-55.086
X170.18Y-93.027
X170.815Y-112.078
X174.942Y-35.877
X174.942Y-54.927
X175.577Y-74.136
X179.705Y-112.078
X180.34Y-93.027
X184.468Y-73.977
X185.102Y-35.877
X185.102Y-54.927
X189.23Y-93.027
X189.865Y-112.078
X193.992Y-35.877
X193.992Y-54.927
X194.627Y-73.977
X198.755Y-112.078
X199.39Y-93.027
X201.136Y-131.127
X203.517Y-73.977
X204.153Y-35.877
X204.153Y-54.927
X208.28Y-93.027
X208.915Y-112.078
X211.296Y-131.127
X213.042Y-35.877
X213.042Y-54.927
X213.677Y-73.977
X218.44Y-93.027
X222.567Y-73.977
X223.202Y-35.877
X223.202Y-54.927
X224.949Y-131.127
X232.093Y-35.719
X232.727Y-73.977
X234.474Y-112.078
X235.109Y-131.127
X239.236Y-93.027
X241.611Y-54.769
X242.252Y-35.719
X244.634Y-112.078
X246.38Y-73.977
X248.761Y-131.127
X249.396Y-93.027
X251.202Y-35.719
X251.771Y-54.769
X256.54Y-73.977
X258.921Y-131.127
X261.362Y-35.719
X274.788Y-35.719
X274.788Y-54.769
X274.788Y-73.819
X274.955Y-131.127
X284.948Y-35.719
X284.948Y-54.769
X284.948Y-73.819
X285.115Y-131.127
X293.767Y-35.719
X293.767Y-54.769
X293.767Y-73.819
X294.005Y-112.078
X294.005Y-131.127
X303.927Y-35.719
X303.927Y-54.769
X303.927Y-73.819
X304.165Y-112.078
X304.165Y-131.127
X312.888Y-35.719
X312.888Y-54.769
X312.888Y-73.819
X313.055Y-131.127
X323.048Y-35.719
X323.048Y-54.769
X323.048Y-73.819
X323.215Y-131.127
T2
X-10.471Y-105.078
X13.329Y-105.078
X84.779Y-124.127
X184.779Y-124.127
X227.654Y-105.078
X232.416Y-86.027
X234.791Y-47.769
X251.454Y-105.078
X256.216Y-86.027
X258.591Y-47.769
T3
X-10.477Y-35.877
X-10.477Y-54.927
X-10.471Y-120.317
X-8.096Y-131.127
X-5.715Y-73.977
X-3.334Y-93.027
X1.429Y-112.078
X8.572Y-35.878
X8.572Y-54.927
X13.329Y-120.317
X15.716Y-131.127
X18.098Y-73.977
X22.86Y-93.027
X27.622Y-35.877
X27.622Y-54.927
X32.385Y-112.078
X37.148Y-73.977
X39.529Y-131.127
X41.91Y-93.027
X46.672Y-35.877
X46.672Y-54.927
X51.435Y-112.078
X56.197Y-73.977
X60.96Y-93.027
X63.341Y-131.127
X65.722Y-35.877
X65.722Y-54.927
X70.485Y-112.078
X75.248Y-73.977
X80.01Y-93.027
X84.772Y-35.877
X84.772Y-54.927
X84.779Y-139.368
X89.535Y-112.078
X94.297Y-73.977
X99.06Y-93.027
X103.822Y-35.877
X103.822Y-54.927
X108.585Y-112.078
X113.347Y-73.977
X118.11Y-93.027
X122.872Y-35.877
X122.872Y-54.927
X127.635Y-112.078
X132.398Y-73.977
X134.779Y-131.127
X137.16Y-93.027
X141.922Y-35.877
X141.922Y-54.927
X146.685Y-112.078
X151.447Y-73.977
X156.21Y-93.027
X160.972Y-36.036
X160.972Y-55.086
X165.735Y-112.078
X170.498Y-74.136
X175.26Y-93.027
X180.022Y-35.877
X180.022Y-54.927
X184.779Y-139.368
X184.785Y-112.078
X189.547Y-73.977
X194.31Y-93.027
X199.072Y-35.877
X199.072Y-54.927
X203.835Y-112.078
X206.216Y-131.127
X208.597Y-73.977
X213.36Y-93.027
X218.123Y-35.877
X218.123Y-54.927
X227.647Y-73.977
X227.654Y-120.317
X230.029Y-131.127
X232.416Y-101.267
X234.791Y-63.009
X237.172Y-35.719
X239.554Y-112.078
X244.316Y-93.027
X246.691Y-54.769
X251.454Y-120.317
X251.46Y-73.977
X253.841Y-131.127
X256.216Y-101.267
X256.282Y-35.719
X258.591Y-63.009
X279.868Y-35.719
X279.868Y-54.769
X279.868Y-73.819
X280.035Y-131.127
X298.847Y-35.719
X298.847Y-54.769
X298.847Y-73.819
X299.085Y-112.078
X299.085Y-131.127
X317.968Y-35.719
X317.968Y-54.769
X317.968Y-73.819
X318.135Y-131.127
M30
