%TF.GenerationSoftware,KiCad,Pcbnew,9.0.3-9.0.3-0~ubuntu24.04.1*%
%TF.CreationDate,2025-07-19T21:47:56-07:00*%
%TF.ProjectId,Keyboard,4b657962-6f61-4726-942e-6b696361645f,rev?*%
%TF.SameCoordinates,Original*%
%TF.FileFunction,Soldermask,Top*%
%TF.FilePolarity,Negative*%
%FSLAX46Y46*%
G04 Gerber Fmt 4.6, Leading zero omitted, Abs format (unit mm)*
G04 Created by KiCad (PCBNEW 9.0.3-9.0.3-0~ubuntu24.04.1) date 2025-07-19 21:47:56*
%MOMM*%
%LPD*%
G01*
G04 APERTURE LIST*
G04 Aperture macros list*
%AMRoundRect*
0 Rectangle with rounded corners*
0 $1 Rounding radius*
0 $2 $3 $4 $5 $6 $7 $8 $9 X,Y pos of 4 corners*
0 Add a 4 corners polygon primitive as box body*
4,1,4,$2,$3,$4,$5,$6,$7,$8,$9,$2,$3,0*
0 Add four circle primitives for the rounded corners*
1,1,$1+$1,$2,$3*
1,1,$1+$1,$4,$5*
1,1,$1+$1,$6,$7*
1,1,$1+$1,$8,$9*
0 Add four rect primitives between the rounded corners*
20,1,$1+$1,$2,$3,$4,$5,0*
20,1,$1+$1,$4,$5,$6,$7,0*
20,1,$1+$1,$6,$7,$8,$9,0*
20,1,$1+$1,$8,$9,$2,$3,0*%
%AMFreePoly0*
4,1,37,0.603843,0.796157,0.639018,0.796157,0.711114,0.766294,0.766294,0.711114,0.796157,0.639018,0.796157,0.603843,0.800000,0.600000,0.800000,-0.600000,0.796157,-0.603843,0.796157,-0.639018,0.766294,-0.711114,0.711114,-0.766294,0.639018,-0.796157,0.603843,-0.796157,0.600000,-0.800000,0.000000,-0.800000,0.000000,-0.796148,-0.078414,-0.796148,-0.232228,-0.765552,-0.377117,-0.705537,
-0.507515,-0.618408,-0.618408,-0.507515,-0.705537,-0.377117,-0.765552,-0.232228,-0.796148,-0.078414,-0.796148,0.078414,-0.765552,0.232228,-0.705537,0.377117,-0.618408,0.507515,-0.507515,0.618408,-0.377117,0.705537,-0.232228,0.765552,-0.078414,0.796148,0.000000,0.796148,0.000000,0.800000,0.600000,0.800000,0.603843,0.796157,0.603843,0.796157,$1*%
%AMFreePoly1*
4,1,37,0.000000,0.796148,0.078414,0.796148,0.232228,0.765552,0.377117,0.705537,0.507515,0.618408,0.618408,0.507515,0.705537,0.377117,0.765552,0.232228,0.796148,0.078414,0.796148,-0.078414,0.765552,-0.232228,0.705537,-0.377117,0.618408,-0.507515,0.507515,-0.618408,0.377117,-0.705537,0.232228,-0.765552,0.078414,-0.796148,0.000000,-0.796148,0.000000,-0.800000,-0.600000,-0.800000,
-0.603843,-0.796157,-0.639018,-0.796157,-0.711114,-0.766294,-0.766294,-0.711114,-0.796157,-0.639018,-0.796157,-0.603843,-0.800000,-0.600000,-0.800000,0.600000,-0.796157,0.603843,-0.796157,0.639018,-0.766294,0.711114,-0.711114,0.766294,-0.639018,0.796157,-0.603843,0.796157,-0.600000,0.800000,0.000000,0.800000,0.000000,0.796148,0.000000,0.796148,$1*%
G04 Aperture macros list end*
%ADD10C,1.700000*%
%ADD11C,4.000000*%
%ADD12C,2.200000*%
%ADD13C,3.050000*%
%ADD14RoundRect,0.250000X0.550000X-0.550000X0.550000X0.550000X-0.550000X0.550000X-0.550000X-0.550000X0*%
%ADD15C,1.600000*%
%ADD16R,1.600000X0.850000*%
%ADD17RoundRect,0.250000X-0.550000X-0.550000X0.550000X-0.550000X0.550000X0.550000X-0.550000X0.550000X0*%
%ADD18RoundRect,0.200000X0.600000X0.600000X-0.600000X0.600000X-0.600000X-0.600000X0.600000X-0.600000X0*%
%ADD19FreePoly0,180.000000*%
%ADD20FreePoly1,180.000000*%
G04 APERTURE END LIST*
D10*
%TO.C,SW44*%
X117792500Y-54927500D03*
D11*
X122872500Y-54927500D03*
D10*
X127952500Y-54927500D03*
D12*
X125412500Y-49847500D03*
X119062500Y-52387500D03*
%TD*%
D10*
%TO.C,SW56*%
X155892500Y-55086250D03*
D11*
X160972500Y-55086250D03*
D10*
X166052500Y-55086250D03*
D12*
X163512500Y-50006250D03*
X157162500Y-52546250D03*
%TD*%
D10*
%TO.C,SW40*%
X113030000Y-93027500D03*
D11*
X118110000Y-93027500D03*
D10*
X123190000Y-93027500D03*
D12*
X120650000Y-87947500D03*
X114300000Y-90487500D03*
%TD*%
D10*
%TO.C,SW63*%
X184467500Y-73977500D03*
D11*
X189547500Y-73977500D03*
D10*
X194627500Y-73977500D03*
D12*
X192087500Y-68897500D03*
X185737500Y-71437500D03*
%TD*%
D10*
%TO.C,SW11*%
X27305000Y-112077500D03*
D11*
X32385000Y-112077500D03*
D10*
X37465000Y-112077500D03*
D12*
X34925000Y-106997500D03*
X28575000Y-109537500D03*
%TD*%
D10*
%TO.C,SW85*%
X293766875Y-35718750D03*
D11*
X298846875Y-35718750D03*
D10*
X303926875Y-35718750D03*
D12*
X301386875Y-30638750D03*
X295036875Y-33178750D03*
%TD*%
D10*
%TO.C,SW34*%
X93980000Y-93027500D03*
D11*
X99060000Y-93027500D03*
D10*
X104140000Y-93027500D03*
D12*
X101600000Y-87947500D03*
X95250000Y-90487500D03*
%TD*%
D10*
%TO.C,SW8*%
X3492500Y-54927500D03*
D11*
X8572500Y-54927500D03*
D10*
X13652500Y-54927500D03*
D12*
X11112500Y-49847500D03*
X4762500Y-52387500D03*
%TD*%
D10*
%TO.C,SW31*%
X79692500Y-35877500D03*
D11*
X84772500Y-35877500D03*
D10*
X89852500Y-35877500D03*
D12*
X87312500Y-30797500D03*
X80962500Y-33337500D03*
%TD*%
D10*
%TO.C,SW68*%
X193992500Y-54927500D03*
D11*
X199072500Y-54927500D03*
D10*
X204152500Y-54927500D03*
D12*
X201612500Y-49847500D03*
X195262500Y-52387500D03*
%TD*%
D10*
%TO.C,SW46*%
X132080000Y-93027500D03*
D11*
X137160000Y-93027500D03*
D10*
X142240000Y-93027500D03*
D12*
X139700000Y-87947500D03*
X133350000Y-90487500D03*
%TD*%
D10*
%TO.C,SW62*%
X174942500Y-54927500D03*
D11*
X180022500Y-54927500D03*
D10*
X185102500Y-54927500D03*
D12*
X182562500Y-49847500D03*
X176212500Y-52387500D03*
%TD*%
D10*
%TO.C,SW49*%
X136842500Y-35877500D03*
D11*
X141922500Y-35877500D03*
D10*
X147002500Y-35877500D03*
D12*
X144462500Y-30797500D03*
X138112500Y-33337500D03*
%TD*%
D10*
%TO.C,SW36*%
X201136250Y-131127500D03*
D11*
X206216250Y-131127500D03*
D10*
X211296250Y-131127500D03*
D12*
X208756250Y-126047500D03*
X202406250Y-128587500D03*
%TD*%
D13*
%TO.C,SW30*%
X84778750Y-124127500D03*
D11*
X84778750Y-139367500D03*
D10*
X129698750Y-131127500D03*
D11*
X134778750Y-131127500D03*
D10*
X139858750Y-131127500D03*
D13*
X184778750Y-124127500D03*
D11*
X184778750Y-139367500D03*
D12*
X137318750Y-126047500D03*
X130968750Y-128587500D03*
%TD*%
D10*
%TO.C,SW45*%
X127317500Y-73977500D03*
D11*
X132397500Y-73977500D03*
D10*
X137477500Y-73977500D03*
D12*
X134937500Y-68897500D03*
X128587500Y-71437500D03*
%TD*%
D10*
%TO.C,SW81*%
X246380000Y-73977500D03*
D11*
X251460000Y-73977500D03*
D10*
X256540000Y-73977500D03*
D12*
X254000000Y-68897500D03*
X247650000Y-71437500D03*
%TD*%
D10*
%TO.C,SW88*%
X312888125Y-73818750D03*
D11*
X317968125Y-73818750D03*
D10*
X323048125Y-73818750D03*
D12*
X320508125Y-68738750D03*
X314158125Y-71278750D03*
%TD*%
D10*
%TO.C,SW20*%
X41592500Y-54927500D03*
D11*
X46672500Y-54927500D03*
D10*
X51752500Y-54927500D03*
D12*
X49212500Y-49847500D03*
X42862500Y-52387500D03*
%TD*%
D13*
%TO.C,SW80*%
X234791250Y-47768750D03*
D11*
X234791250Y-63008750D03*
D10*
X241611250Y-54768750D03*
D11*
X246691250Y-54768750D03*
D10*
X251771250Y-54768750D03*
D13*
X258591250Y-47768750D03*
D11*
X258591250Y-63008750D03*
D12*
X249231250Y-49688750D03*
X242881250Y-52228750D03*
%TD*%
D10*
%TO.C,SW54*%
X274955000Y-131127500D03*
D11*
X280035000Y-131127500D03*
D10*
X285115000Y-131127500D03*
D12*
X282575000Y-126047500D03*
X276225000Y-128587500D03*
%TD*%
D10*
%TO.C,SW66*%
X313055000Y-131127500D03*
D11*
X318135000Y-131127500D03*
D10*
X323215000Y-131127500D03*
D12*
X320675000Y-126047500D03*
X314325000Y-128587500D03*
%TD*%
D10*
%TO.C,SW61*%
X174942500Y-35877500D03*
D11*
X180022500Y-35877500D03*
D10*
X185102500Y-35877500D03*
D12*
X182562500Y-30797500D03*
X176212500Y-33337500D03*
%TD*%
D10*
%TO.C,SW78*%
X274788125Y-54768750D03*
D11*
X279868125Y-54768750D03*
D10*
X284948125Y-54768750D03*
D12*
X282408125Y-49688750D03*
X276058125Y-52228750D03*
%TD*%
D10*
%TO.C,SW9*%
X13017500Y-73977500D03*
D11*
X18097500Y-73977500D03*
D10*
X23177500Y-73977500D03*
D12*
X20637500Y-68897500D03*
X14287500Y-71437500D03*
%TD*%
D10*
%TO.C,SW73*%
X213042500Y-35877500D03*
D11*
X218122500Y-35877500D03*
D10*
X223202500Y-35877500D03*
D12*
X220662500Y-30797500D03*
X214312500Y-33337500D03*
%TD*%
D10*
%TO.C,SW24*%
X58261250Y-131127500D03*
D11*
X63341250Y-131127500D03*
D10*
X68421250Y-131127500D03*
D12*
X65881250Y-126047500D03*
X59531250Y-128587500D03*
%TD*%
D10*
%TO.C,SW64*%
X189230000Y-93027500D03*
D11*
X194310000Y-93027500D03*
D10*
X199390000Y-93027500D03*
D12*
X196850000Y-87947500D03*
X190500000Y-90487500D03*
%TD*%
D10*
%TO.C,SW87*%
X293766875Y-73818750D03*
D11*
X298846875Y-73818750D03*
D10*
X303926875Y-73818750D03*
D12*
X301386875Y-68738750D03*
X295036875Y-71278750D03*
%TD*%
D10*
%TO.C,SW82*%
X274788125Y-73818750D03*
D11*
X279868125Y-73818750D03*
D10*
X284948125Y-73818750D03*
D12*
X282408125Y-68738750D03*
X276058125Y-71278750D03*
%TD*%
D14*
%TO.C,D87*%
X289500000Y-78060000D03*
D15*
X289500000Y-70440000D03*
%TD*%
D10*
%TO.C,SW42*%
X224948750Y-131127500D03*
D11*
X230028750Y-131127500D03*
D10*
X235108750Y-131127500D03*
D12*
X232568750Y-126047500D03*
X226218750Y-128587500D03*
%TD*%
D13*
%TO.C,SW5*%
X-10471250Y-105077500D03*
D11*
X-10471250Y-120317500D03*
D10*
X-3651250Y-112077500D03*
D11*
X1428750Y-112077500D03*
D10*
X6508750Y-112077500D03*
D13*
X13328750Y-105077500D03*
D11*
X13328750Y-120317500D03*
D12*
X3968750Y-106997500D03*
X-2381250Y-109537500D03*
%TD*%
D10*
%TO.C,SW15*%
X32067500Y-73977500D03*
D11*
X37147500Y-73977500D03*
D10*
X42227500Y-73977500D03*
D12*
X39687500Y-68897500D03*
X33337500Y-71437500D03*
%TD*%
D10*
%TO.C,SW84*%
X312888125Y-54768750D03*
D11*
X317968125Y-54768750D03*
D10*
X323048125Y-54768750D03*
D12*
X320508125Y-49688750D03*
X314158125Y-52228750D03*
%TD*%
D10*
%TO.C,SW18*%
X34448750Y-131127500D03*
D11*
X39528750Y-131127500D03*
D10*
X44608750Y-131127500D03*
D12*
X42068750Y-126047500D03*
X35718750Y-128587500D03*
%TD*%
D10*
%TO.C,SW27*%
X70167500Y-73977500D03*
D11*
X75247500Y-73977500D03*
D10*
X80327500Y-73977500D03*
D12*
X77787500Y-68897500D03*
X71437500Y-71437500D03*
%TD*%
D10*
%TO.C,SW67*%
X193992500Y-35877500D03*
D11*
X199072500Y-35877500D03*
D10*
X204152500Y-35877500D03*
D12*
X201612500Y-30797500D03*
X195262500Y-33337500D03*
%TD*%
D10*
%TO.C,SW79*%
X232092500Y-35718750D03*
D11*
X237172500Y-35718750D03*
D10*
X242252500Y-35718750D03*
D12*
X239712500Y-30638750D03*
X233362500Y-33178750D03*
%TD*%
D10*
%TO.C,SW16*%
X36830000Y-93027500D03*
D11*
X41910000Y-93027500D03*
D10*
X46990000Y-93027500D03*
D12*
X44450000Y-87947500D03*
X38100000Y-90487500D03*
%TD*%
D10*
%TO.C,SW58*%
X170180000Y-93027500D03*
D11*
X175260000Y-93027500D03*
D10*
X180340000Y-93027500D03*
D12*
X177800000Y-87947500D03*
X171450000Y-90487500D03*
%TD*%
D10*
%TO.C,SW83*%
X312888125Y-35718750D03*
D11*
X317968125Y-35718750D03*
D10*
X323048125Y-35718750D03*
D12*
X320508125Y-30638750D03*
X314158125Y-33178750D03*
%TD*%
D10*
%TO.C,SW19*%
X41592500Y-35877500D03*
D11*
X46672500Y-35877500D03*
D10*
X51752500Y-35877500D03*
D12*
X49212500Y-30797500D03*
X42862500Y-33337500D03*
%TD*%
D10*
%TO.C,SW23*%
X65405000Y-112077500D03*
D11*
X70485000Y-112077500D03*
D10*
X75565000Y-112077500D03*
D12*
X73025000Y-106997500D03*
X66675000Y-109537500D03*
%TD*%
D13*
%TO.C,SW71*%
X227653750Y-105077500D03*
D11*
X227653750Y-120317500D03*
D10*
X234473750Y-112077500D03*
D11*
X239553750Y-112077500D03*
D10*
X244633750Y-112077500D03*
D13*
X251453750Y-105077500D03*
D11*
X251453750Y-120317500D03*
D12*
X242093750Y-106997500D03*
X235743750Y-109537500D03*
%TD*%
D10*
%TO.C,SW33*%
X89217500Y-73977500D03*
D11*
X94297500Y-73977500D03*
D10*
X99377500Y-73977500D03*
D12*
X96837500Y-68897500D03*
X90487500Y-71437500D03*
%TD*%
D10*
%TO.C,SW2*%
X-15557500Y-54927500D03*
D11*
X-10477500Y-54927500D03*
D10*
X-5397500Y-54927500D03*
D12*
X-7937500Y-49847500D03*
X-14287500Y-52387500D03*
%TD*%
D10*
%TO.C,SW7*%
X3492500Y-35877528D03*
D11*
X8572500Y-35877528D03*
D10*
X13652500Y-35877528D03*
D12*
X11112500Y-30797528D03*
X4762500Y-33337528D03*
%TD*%
D10*
%TO.C,SW38*%
X98742500Y-54927500D03*
D11*
X103822500Y-54927500D03*
D10*
X108902500Y-54927500D03*
D12*
X106362500Y-49847500D03*
X100012500Y-52387500D03*
%TD*%
D10*
%TO.C,SW52*%
X151130000Y-93027500D03*
D11*
X156210000Y-93027500D03*
D10*
X161290000Y-93027500D03*
D12*
X158750000Y-87947500D03*
X152400000Y-90487500D03*
%TD*%
D10*
%TO.C,SW53*%
X160655000Y-112077500D03*
D11*
X165735000Y-112077500D03*
D10*
X170815000Y-112077500D03*
D12*
X168275000Y-106997500D03*
X161925000Y-109537500D03*
%TD*%
D10*
%TO.C,SW32*%
X79692500Y-54927500D03*
D11*
X84772500Y-54927500D03*
D10*
X89852500Y-54927500D03*
D12*
X87312500Y-49847500D03*
X80962500Y-52387500D03*
%TD*%
D10*
%TO.C,SW1*%
X-15557500Y-35877500D03*
D11*
X-10477500Y-35877500D03*
D10*
X-5397500Y-35877500D03*
D12*
X-7937500Y-30797500D03*
X-14287500Y-33337500D03*
%TD*%
D10*
%TO.C,SW60*%
X294005000Y-131127500D03*
D11*
X299085000Y-131127500D03*
D10*
X304165000Y-131127500D03*
D12*
X301625000Y-126047500D03*
X295275000Y-128587500D03*
%TD*%
D10*
%TO.C,SW10*%
X17780000Y-93027500D03*
D11*
X22860000Y-93027500D03*
D10*
X27940000Y-93027500D03*
D12*
X25400000Y-87947500D03*
X19050000Y-90487500D03*
%TD*%
D10*
%TO.C,SW57*%
X165417500Y-74136250D03*
D11*
X170497500Y-74136250D03*
D10*
X175577500Y-74136250D03*
D12*
X173037500Y-69056250D03*
X166687500Y-71596250D03*
%TD*%
D10*
%TO.C,SW4*%
X-8413750Y-93027500D03*
D11*
X-3333750Y-93027500D03*
D10*
X1746250Y-93027500D03*
D12*
X-793750Y-87947500D03*
X-7143750Y-90487500D03*
%TD*%
D10*
%TO.C,SW41*%
X122555000Y-112077500D03*
D11*
X127635000Y-112077500D03*
D10*
X132715000Y-112077500D03*
D12*
X130175000Y-106997500D03*
X123825000Y-109537500D03*
%TD*%
D10*
%TO.C,SW74*%
X213042500Y-54927500D03*
D11*
X218122500Y-54927500D03*
D10*
X223202500Y-54927500D03*
D12*
X220662500Y-49847500D03*
X214312500Y-52387500D03*
%TD*%
D10*
%TO.C,SW48*%
X248761250Y-131127500D03*
D11*
X253841250Y-131127500D03*
D10*
X258921250Y-131127500D03*
D12*
X256381250Y-126047500D03*
X250031250Y-128587500D03*
%TD*%
D10*
%TO.C,SW22*%
X55880000Y-93027500D03*
D11*
X60960000Y-93027500D03*
D10*
X66040000Y-93027500D03*
D12*
X63500000Y-87947500D03*
X57150000Y-90487500D03*
%TD*%
D10*
%TO.C,SW55*%
X155892500Y-36036250D03*
D11*
X160972500Y-36036250D03*
D10*
X166052500Y-36036250D03*
D12*
X163512500Y-30956250D03*
X157162500Y-33496250D03*
%TD*%
D10*
%TO.C,SW43*%
X117792500Y-35877500D03*
D11*
X122872500Y-35877500D03*
D10*
X127952500Y-35877500D03*
D12*
X125412500Y-30797500D03*
X119062500Y-33337500D03*
%TD*%
D10*
%TO.C,SW72*%
X294005000Y-112077500D03*
D11*
X299085000Y-112077500D03*
D10*
X304165000Y-112077500D03*
D12*
X301625000Y-106997500D03*
X295275000Y-109537500D03*
%TD*%
D10*
%TO.C,SW14*%
X22542500Y-54927500D03*
D11*
X27622500Y-54927500D03*
D10*
X32702500Y-54927500D03*
D12*
X30162500Y-49847500D03*
X23812500Y-52387500D03*
%TD*%
D10*
%TO.C,SW3*%
X-10795000Y-73977500D03*
D11*
X-5715000Y-73977500D03*
D10*
X-635000Y-73977500D03*
D12*
X-3175000Y-68897500D03*
X-9525000Y-71437500D03*
%TD*%
D13*
%TO.C,SW76*%
X232416250Y-86027500D03*
D11*
X232416250Y-101267500D03*
D10*
X239236250Y-93027500D03*
D11*
X244316250Y-93027500D03*
D10*
X249396250Y-93027500D03*
D13*
X256216250Y-86027500D03*
D11*
X256216250Y-101267500D03*
D12*
X246856250Y-87947500D03*
X240506250Y-90487500D03*
%TD*%
D10*
%TO.C,SW29*%
X84455000Y-112077500D03*
D11*
X89535000Y-112077500D03*
D10*
X94615000Y-112077500D03*
D12*
X92075000Y-106997500D03*
X85725000Y-109537500D03*
%TD*%
D10*
%TO.C,SW86*%
X293766875Y-54768750D03*
D11*
X298846875Y-54768750D03*
D10*
X303926875Y-54768750D03*
D12*
X301386875Y-49688750D03*
X295036875Y-52228750D03*
%TD*%
D10*
%TO.C,SW21*%
X51117500Y-73977500D03*
D11*
X56197500Y-73977500D03*
D10*
X61277500Y-73977500D03*
D12*
X58737500Y-68897500D03*
X52387500Y-71437500D03*
%TD*%
D10*
%TO.C,SW51*%
X146367500Y-73977500D03*
D11*
X151447500Y-73977500D03*
D10*
X156527500Y-73977500D03*
D12*
X153987500Y-68897500D03*
X147637500Y-71437500D03*
%TD*%
D10*
%TO.C,SW37*%
X98742500Y-35877500D03*
D11*
X103822500Y-35877500D03*
D10*
X108902500Y-35877500D03*
D12*
X106362500Y-30797500D03*
X100012500Y-33337500D03*
%TD*%
D10*
%TO.C,SW47*%
X141605000Y-112077500D03*
D11*
X146685000Y-112077500D03*
D10*
X151765000Y-112077500D03*
D12*
X149225000Y-106997500D03*
X142875000Y-109537500D03*
%TD*%
D10*
%TO.C,SW25*%
X60642500Y-35877500D03*
D11*
X65722500Y-35877500D03*
D10*
X70802500Y-35877500D03*
D12*
X68262500Y-30797500D03*
X61912500Y-33337500D03*
%TD*%
D10*
%TO.C,SW6*%
X-13176250Y-131127500D03*
D11*
X-8096250Y-131127500D03*
D10*
X-3016250Y-131127500D03*
D12*
X-5556250Y-126047500D03*
X-11906250Y-128587500D03*
%TD*%
D10*
%TO.C,SW70*%
X208280000Y-93027500D03*
D11*
X213360000Y-93027500D03*
D10*
X218440000Y-93027500D03*
D12*
X215900000Y-87947500D03*
X209550000Y-90487500D03*
%TD*%
D10*
%TO.C,SW26*%
X60642500Y-54927500D03*
D11*
X65722500Y-54927500D03*
D10*
X70802500Y-54927500D03*
D12*
X68262500Y-49847500D03*
X61912500Y-52387500D03*
%TD*%
D10*
%TO.C,SW50*%
X136842500Y-54927500D03*
D11*
X141922500Y-54927500D03*
D10*
X147002500Y-54927500D03*
D12*
X144462500Y-49847500D03*
X138112500Y-52387500D03*
%TD*%
D10*
%TO.C,SW59*%
X179705000Y-112077500D03*
D11*
X184785000Y-112077500D03*
D10*
X189865000Y-112077500D03*
D12*
X187325000Y-106997500D03*
X180975000Y-109537500D03*
%TD*%
D10*
%TO.C,SW89*%
X251201816Y-35718750D03*
D11*
X256281816Y-35718750D03*
D10*
X261361816Y-35718750D03*
D12*
X258821816Y-30638750D03*
X252471816Y-33178750D03*
%TD*%
D10*
%TO.C,SW75*%
X222567500Y-73977500D03*
D11*
X227647500Y-73977500D03*
D10*
X232727500Y-73977500D03*
D12*
X230187500Y-68897500D03*
X223837500Y-71437500D03*
%TD*%
D10*
%TO.C,SW13*%
X22542500Y-35877500D03*
D11*
X27622500Y-35877500D03*
D10*
X32702500Y-35877500D03*
D12*
X30162500Y-30797500D03*
X23812500Y-33337500D03*
%TD*%
D10*
%TO.C,SW28*%
X74930000Y-93027500D03*
D11*
X80010000Y-93027500D03*
D10*
X85090000Y-93027500D03*
D12*
X82550000Y-87947500D03*
X76200000Y-90487500D03*
%TD*%
D10*
%TO.C,SW17*%
X46355000Y-112077500D03*
D11*
X51435000Y-112077500D03*
D10*
X56515000Y-112077500D03*
D12*
X53975000Y-106997500D03*
X47625000Y-109537500D03*
%TD*%
D10*
%TO.C,SW65*%
X198755000Y-112077500D03*
D11*
X203835000Y-112077500D03*
D10*
X208915000Y-112077500D03*
D12*
X206375000Y-106997500D03*
X200025000Y-109537500D03*
%TD*%
D10*
%TO.C,SW69*%
X203517500Y-73977500D03*
D11*
X208597500Y-73977500D03*
D10*
X213677500Y-73977500D03*
D12*
X211137500Y-68897500D03*
X204787500Y-71437500D03*
%TD*%
D10*
%TO.C,SW77*%
X274788125Y-35718750D03*
D11*
X279868125Y-35718750D03*
D10*
X284948125Y-35718750D03*
D12*
X282408125Y-30638750D03*
X276058125Y-33178750D03*
%TD*%
D10*
%TO.C,SW12*%
X10636250Y-131127500D03*
D11*
X15716250Y-131127500D03*
D10*
X20796250Y-131127500D03*
D12*
X18256250Y-126047500D03*
X11906250Y-128587500D03*
%TD*%
D10*
%TO.C,SW35*%
X103505000Y-112077500D03*
D11*
X108585000Y-112077500D03*
D10*
X113665000Y-112077500D03*
D12*
X111125000Y-106997500D03*
X104775000Y-109537500D03*
%TD*%
D10*
%TO.C,SW39*%
X108267500Y-73977500D03*
D11*
X113347500Y-73977500D03*
D10*
X118427500Y-73977500D03*
D12*
X115887500Y-68897500D03*
X109537500Y-71437500D03*
%TD*%
D16*
%TO.C,D91*%
X316250000Y-19875000D03*
X316250000Y-21625000D03*
X319750000Y-21625000D03*
X319750000Y-19875000D03*
%TD*%
D14*
%TO.C,D50*%
X132397500Y-58737500D03*
D15*
X132397500Y-51117500D03*
%TD*%
D14*
%TO.C,D36*%
X196691250Y-134937500D03*
D15*
X196691250Y-127317500D03*
%TD*%
D14*
%TO.C,D43*%
X113347500Y-39687500D03*
D15*
X113347500Y-32067500D03*
%TD*%
D17*
%TO.C,D86*%
X294690000Y-45500000D03*
D15*
X302310000Y-45500000D03*
%TD*%
D14*
%TO.C,D51*%
X141922500Y-77787500D03*
D15*
X141922500Y-70167500D03*
%TD*%
D14*
%TO.C,D70*%
X203835000Y-96837500D03*
D15*
X203835000Y-89217500D03*
%TD*%
D14*
%TO.C,D21*%
X46672500Y-77787500D03*
D15*
X46672500Y-70167500D03*
%TD*%
D14*
%TO.C,D35*%
X99060000Y-115887500D03*
D15*
X99060000Y-108267500D03*
%TD*%
D14*
%TO.C,D79*%
X227647500Y-39687500D03*
D15*
X227647500Y-32067500D03*
%TD*%
D14*
%TO.C,D27*%
X65722500Y-77787500D03*
D15*
X65722500Y-70167500D03*
%TD*%
D14*
%TO.C,D88*%
X327500000Y-77628750D03*
D15*
X327500000Y-70008750D03*
%TD*%
D14*
%TO.C,D24*%
X53816250Y-134937500D03*
D15*
X53816250Y-127317500D03*
%TD*%
D14*
%TO.C,D71*%
X230028750Y-115887500D03*
D15*
X230028750Y-108267500D03*
%TD*%
D14*
%TO.C,D66*%
X308610000Y-134937500D03*
D15*
X308610000Y-127317500D03*
%TD*%
D14*
%TO.C,D64*%
X184785000Y-96837500D03*
D15*
X184785000Y-89217500D03*
%TD*%
D14*
%TO.C,D60*%
X289560000Y-134937500D03*
D15*
X289560000Y-127317500D03*
%TD*%
D14*
%TO.C,D42*%
X220503750Y-134937500D03*
D15*
X220503750Y-127317500D03*
%TD*%
D14*
%TO.C,D73*%
X208597500Y-39687500D03*
D15*
X208597500Y-32067500D03*
%TD*%
D14*
%TO.C,D29*%
X80010000Y-115887500D03*
D15*
X80010000Y-108267500D03*
%TD*%
D14*
%TO.C,D39*%
X103822500Y-77787500D03*
D15*
X103822500Y-70167500D03*
%TD*%
D14*
%TO.C,D54*%
X270510000Y-134937500D03*
D15*
X270510000Y-127317500D03*
%TD*%
D14*
%TO.C,D67*%
X189547500Y-39687500D03*
D15*
X189547500Y-32067500D03*
%TD*%
D14*
%TO.C,D38*%
X94297500Y-58737500D03*
D15*
X94297500Y-51117500D03*
%TD*%
D14*
%TO.C,D47*%
X137160000Y-115887500D03*
D15*
X137160000Y-108267500D03*
%TD*%
D14*
%TO.C,D2*%
X-20002500Y-58737500D03*
D15*
X-20002500Y-51117500D03*
%TD*%
D14*
%TO.C,D65*%
X194310000Y-115887500D03*
D15*
X194310000Y-108267500D03*
%TD*%
D14*
%TO.C,D48*%
X244316250Y-134937500D03*
D15*
X244316250Y-127317500D03*
%TD*%
D14*
%TO.C,D76*%
X234750000Y-96810000D03*
D15*
X234750000Y-89190000D03*
%TD*%
D14*
%TO.C,D82*%
X270343125Y-77628750D03*
D15*
X270343125Y-70008750D03*
%TD*%
D14*
%TO.C,D14*%
X18097500Y-58737500D03*
D15*
X18097500Y-51117500D03*
%TD*%
D14*
%TO.C,D8*%
X-952500Y-58737500D03*
D15*
X-952500Y-51117500D03*
%TD*%
D14*
%TO.C,D33*%
X84772500Y-77787500D03*
D15*
X84772500Y-70167500D03*
%TD*%
D14*
%TO.C,D68*%
X189547500Y-58737500D03*
D15*
X189547500Y-51117500D03*
%TD*%
D14*
%TO.C,D22*%
X51435000Y-96837500D03*
D15*
X51435000Y-89217500D03*
%TD*%
D14*
%TO.C,D55*%
X151447500Y-39846250D03*
D15*
X151447500Y-32226250D03*
%TD*%
D14*
%TO.C,D58*%
X165735000Y-96837500D03*
D15*
X165735000Y-89217500D03*
%TD*%
D14*
%TO.C,D56*%
X151447500Y-58896250D03*
D15*
X151447500Y-51276250D03*
%TD*%
D14*
%TO.C,D89*%
X246756824Y-39528720D03*
D15*
X246756824Y-31908720D03*
%TD*%
D14*
%TO.C,D80*%
X237250000Y-58560000D03*
D15*
X237250000Y-50940000D03*
%TD*%
D14*
%TO.C,D37*%
X94297500Y-39687500D03*
D15*
X94297500Y-32067500D03*
%TD*%
D14*
%TO.C,D9*%
X8572500Y-77787500D03*
D15*
X8572500Y-70167500D03*
%TD*%
D14*
%TO.C,D30*%
X125253750Y-134937500D03*
D15*
X125253750Y-127317500D03*
%TD*%
D14*
%TO.C,D7*%
X-952500Y-39687500D03*
D15*
X-952500Y-32067500D03*
%TD*%
D14*
%TO.C,D11*%
X22860000Y-115887500D03*
D15*
X22860000Y-108267500D03*
%TD*%
D14*
%TO.C,D81*%
X242000000Y-77787500D03*
D15*
X242000000Y-70167500D03*
%TD*%
D14*
%TO.C,D31*%
X75247500Y-39687500D03*
D15*
X75247500Y-32067500D03*
%TD*%
D14*
%TO.C,D13*%
X18097500Y-39687500D03*
D15*
X18097500Y-32067500D03*
%TD*%
D14*
%TO.C,D25*%
X56197500Y-39687500D03*
D15*
X56197500Y-32067500D03*
%TD*%
D14*
%TO.C,D1*%
X-20002500Y-39687500D03*
D15*
X-20002500Y-32067500D03*
%TD*%
D14*
%TO.C,D28*%
X70485000Y-96837500D03*
D15*
X70485000Y-89217500D03*
%TD*%
D14*
%TO.C,D57*%
X160972500Y-77946250D03*
D15*
X160972500Y-70326250D03*
%TD*%
D14*
%TO.C,D19*%
X37147500Y-39687500D03*
D15*
X37147500Y-32067500D03*
%TD*%
D14*
%TO.C,D6*%
X-17621250Y-134937500D03*
D15*
X-17621250Y-127317500D03*
%TD*%
D14*
%TO.C,D18*%
X30003750Y-134937500D03*
D15*
X30003750Y-127317500D03*
%TD*%
D14*
%TO.C,D41*%
X118110000Y-115887500D03*
D15*
X118110000Y-108267500D03*
%TD*%
D14*
%TO.C,D52*%
X146685000Y-96837500D03*
D15*
X146685000Y-89217500D03*
%TD*%
D14*
%TO.C,D17*%
X41910000Y-115887500D03*
D15*
X41910000Y-108267500D03*
%TD*%
D14*
%TO.C,D63*%
X180022500Y-77787500D03*
D15*
X180022500Y-70167500D03*
%TD*%
D14*
%TO.C,D5*%
X-8096250Y-115887500D03*
D15*
X-8096250Y-108267500D03*
%TD*%
D14*
%TO.C,D59*%
X175260000Y-115887500D03*
D15*
X175260000Y-108267500D03*
%TD*%
D14*
%TO.C,D78*%
X270343125Y-58578750D03*
D15*
X270343125Y-50958750D03*
%TD*%
D17*
%TO.C,D85*%
X294690000Y-26250000D03*
D15*
X302310000Y-26250000D03*
%TD*%
D14*
%TO.C,D20*%
X37147500Y-58737500D03*
D15*
X37147500Y-51117500D03*
%TD*%
D14*
%TO.C,D3*%
X-15240000Y-77787500D03*
D15*
X-15240000Y-70167500D03*
%TD*%
D14*
%TO.C,D23*%
X60960000Y-115887500D03*
D15*
X60960000Y-108267500D03*
%TD*%
D14*
%TO.C,D44*%
X113347500Y-58737500D03*
D15*
X113347500Y-51117500D03*
%TD*%
D14*
%TO.C,D4*%
X-12858750Y-96837500D03*
D15*
X-12858750Y-89217500D03*
%TD*%
D14*
%TO.C,D77*%
X270343125Y-39290625D03*
D15*
X270343125Y-31670625D03*
%TD*%
D14*
%TO.C,D49*%
X132397500Y-39687500D03*
D15*
X132397500Y-32067500D03*
%TD*%
D14*
%TO.C,D69*%
X199072500Y-77787500D03*
D15*
X199072500Y-70167500D03*
%TD*%
D14*
%TO.C,D53*%
X156210000Y-115887500D03*
D15*
X156210000Y-108267500D03*
%TD*%
D18*
%TO.C,U1*%
X308030000Y-19130000D03*
D15*
X308030000Y-21670000D03*
D19*
X308030000Y-24210000D03*
D15*
X308030000Y-26750000D03*
X308030000Y-29290000D03*
X308030000Y-31830000D03*
X308030000Y-34370000D03*
D19*
X308030000Y-36910000D03*
D15*
X308030000Y-39450000D03*
X308030000Y-41990000D03*
X308030000Y-44530000D03*
X308030000Y-47070000D03*
D19*
X308030000Y-49610000D03*
D15*
X308030000Y-52150000D03*
X308030000Y-54690000D03*
X308030000Y-57230000D03*
X308030000Y-59770000D03*
D19*
X308030000Y-62310000D03*
D15*
X308030000Y-64850000D03*
X308030000Y-67390000D03*
X290250000Y-67390000D03*
X290250000Y-64850000D03*
D20*
X290250000Y-62310000D03*
D15*
X290250000Y-59770000D03*
X290250000Y-57230000D03*
X290250000Y-54690000D03*
X290250000Y-52150000D03*
D20*
X290250000Y-49610000D03*
D15*
X290250000Y-47070000D03*
X290250000Y-44530000D03*
X290250000Y-41990000D03*
X290250000Y-39450000D03*
D20*
X290250000Y-36910000D03*
D15*
X290250000Y-34370000D03*
X290250000Y-31830000D03*
X290250000Y-29290000D03*
X290250000Y-26750000D03*
D20*
X290250000Y-24210000D03*
D15*
X290250000Y-21670000D03*
X290250000Y-19130000D03*
%TD*%
D14*
%TO.C,D45*%
X122872500Y-77787500D03*
D15*
X122872500Y-70167500D03*
%TD*%
D14*
%TO.C,D12*%
X6191250Y-134937500D03*
D15*
X6191250Y-127317500D03*
%TD*%
D14*
%TO.C,D32*%
X75247500Y-58737500D03*
D15*
X75247500Y-51117500D03*
%TD*%
D14*
%TO.C,D46*%
X127635000Y-96837500D03*
D15*
X127635000Y-89217500D03*
%TD*%
D14*
%TO.C,D74*%
X208597500Y-58737500D03*
D15*
X208597500Y-51117500D03*
%TD*%
D14*
%TO.C,D84*%
X327500000Y-58560000D03*
D15*
X327500000Y-50940000D03*
%TD*%
D14*
%TO.C,D10*%
X13335000Y-96837500D03*
D15*
X13335000Y-89217500D03*
%TD*%
D14*
%TO.C,D40*%
X108585000Y-96837500D03*
D15*
X108585000Y-89217500D03*
%TD*%
D14*
%TO.C,D26*%
X56197500Y-58737500D03*
D15*
X56197500Y-51117500D03*
%TD*%
D14*
%TO.C,D16*%
X32385000Y-96837500D03*
D15*
X32385000Y-89217500D03*
%TD*%
D14*
%TO.C,D34*%
X89535000Y-96837500D03*
D15*
X89535000Y-89217500D03*
%TD*%
D14*
%TO.C,D61*%
X170497500Y-39687500D03*
D15*
X170497500Y-32067500D03*
%TD*%
D14*
%TO.C,D62*%
X170497500Y-58737500D03*
D15*
X170497500Y-51117500D03*
%TD*%
D14*
%TO.C,D15*%
X27622500Y-77787500D03*
D15*
X27622500Y-70167500D03*
%TD*%
D14*
%TO.C,D83*%
X327500000Y-39810000D03*
D15*
X327500000Y-32190000D03*
%TD*%
D14*
%TO.C,D72*%
X289560000Y-115887500D03*
D15*
X289560000Y-108267500D03*
%TD*%
D14*
%TO.C,D75*%
X218122500Y-77787500D03*
D15*
X218122500Y-70167500D03*
%TD*%
M02*
