%TF.GenerationSoftware,KiCad,Pcbnew,9.0.3-9.0.3-0~ubuntu24.04.1*%
%TF.CreationDate,2025-07-19T21:47:56-07:00*%
%TF.ProjectId,Keyboard,4b657962-6f61-4726-942e-6b696361645f,rev?*%
%TF.SameCoordinates,Original*%
%TF.FileFunction,Paste,Bot*%
%TF.FilePolarity,Positive*%
%FSLAX46Y46*%
G04 Gerber Fmt 4.6, Leading zero omitted, Abs format (unit mm)*
G04 Created by KiCad (PCBNEW 9.0.3-9.0.3-0~ubuntu24.04.1) date 2025-07-19 21:47:56*
%MOMM*%
%LPD*%
G01*
G04 APERTURE LIST*
G04 Aperture macros list*
%AMRoundRect*
0 Rectangle with rounded corners*
0 $1 Rounding radius*
0 $2 $3 $4 $5 $6 $7 $8 $9 X,Y pos of 4 corners*
0 Add a 4 corners polygon primitive as box body*
4,1,4,$2,$3,$4,$5,$6,$7,$8,$9,$2,$3,0*
0 Add four circle primitives for the rounded corners*
1,1,$1+$1,$2,$3*
1,1,$1+$1,$4,$5*
1,1,$1+$1,$6,$7*
1,1,$1+$1,$8,$9*
0 Add four rect primitives between the rounded corners*
20,1,$1+$1,$2,$3,$4,$5,0*
20,1,$1+$1,$4,$5,$6,$7,0*
20,1,$1+$1,$6,$7,$8,$9,0*
20,1,$1+$1,$8,$9,$2,$3,0*%
G04 Aperture macros list end*
%ADD10RoundRect,0.082000X0.718000X-0.328000X0.718000X0.328000X-0.718000X0.328000X-0.718000X-0.328000X0*%
%ADD11RoundRect,0.250000X0.475000X-0.250000X0.475000X0.250000X-0.475000X0.250000X-0.475000X-0.250000X0*%
%ADD12RoundRect,0.250000X0.450000X-0.262500X0.450000X0.262500X-0.450000X0.262500X-0.450000X-0.262500X0*%
G04 APERTURE END LIST*
D10*
%TO.C,D148*%
X192147500Y-79807500D03*
X192147500Y-78307500D03*
X186947500Y-78307500D03*
X186947500Y-79807500D03*
%TD*%
%TO.C,D144*%
X177860000Y-98857500D03*
X177860000Y-97357500D03*
X172660000Y-97357500D03*
X172660000Y-98857500D03*
%TD*%
%TO.C,D141*%
X163572500Y-41866250D03*
X163572500Y-40366250D03*
X158372500Y-40366250D03*
X158372500Y-41866250D03*
%TD*%
%TO.C,D157*%
X220722500Y-41707500D03*
X220722500Y-40207500D03*
X215522500Y-40207500D03*
X215522500Y-41707500D03*
%TD*%
%TO.C,D153*%
X201672500Y-60757500D03*
X201672500Y-59257500D03*
X196472500Y-59257500D03*
X196472500Y-60757500D03*
%TD*%
%TO.C,D117*%
X77847500Y-79807500D03*
X77847500Y-78307500D03*
X72647500Y-78307500D03*
X72647500Y-79807500D03*
%TD*%
%TO.C,D125*%
X106422500Y-41707500D03*
X106422500Y-40207500D03*
X101222500Y-40207500D03*
X101222500Y-41707500D03*
%TD*%
%TO.C,D96*%
X-5496250Y-136957500D03*
X-5496250Y-135457500D03*
X-10696250Y-135457500D03*
X-10696250Y-136957500D03*
%TD*%
%TO.C,D110*%
X49272500Y-60757500D03*
X49272500Y-59257500D03*
X44072500Y-59257500D03*
X44072500Y-60757500D03*
%TD*%
%TO.C,D165*%
X254060000Y-79807500D03*
X254060000Y-78307500D03*
X248860000Y-78307500D03*
X248860000Y-79807500D03*
%TD*%
%TO.C,D104*%
X30222500Y-60757500D03*
X30222500Y-59257500D03*
X25022500Y-59257500D03*
X25022500Y-60757500D03*
%TD*%
%TO.C,D93*%
X-3115000Y-79807500D03*
X-3115000Y-78307500D03*
X-8315000Y-78307500D03*
X-8315000Y-79807500D03*
%TD*%
%TO.C,D169*%
X282468125Y-79648750D03*
X282468125Y-78148750D03*
X277268125Y-78148750D03*
X277268125Y-79648750D03*
%TD*%
%TO.C,D130*%
X137562500Y-136902500D03*
X137562500Y-135402500D03*
X132362500Y-135402500D03*
X132362500Y-136902500D03*
%TD*%
%TO.C,D174*%
X301685000Y-117907500D03*
X301685000Y-116407500D03*
X296485000Y-116407500D03*
X296485000Y-117907500D03*
%TD*%
%TO.C,D179*%
X320735000Y-136957500D03*
X320735000Y-135457500D03*
X315535000Y-135457500D03*
X315535000Y-136957500D03*
%TD*%
%TO.C,D167*%
X282468125Y-41548750D03*
X282468125Y-40048750D03*
X277268125Y-40048750D03*
X277268125Y-41548750D03*
%TD*%
%TO.C,D90*%
X-7877500Y-60757500D03*
X-7877500Y-59257500D03*
X-13077500Y-59257500D03*
X-13077500Y-60757500D03*
%TD*%
%TO.C,D120*%
X87372500Y-41707500D03*
X87372500Y-40207500D03*
X82172500Y-40207500D03*
X82172500Y-41707500D03*
%TD*%
%TO.C,D121*%
X87372500Y-60757500D03*
X87372500Y-59257500D03*
X82172500Y-59257500D03*
X82172500Y-60757500D03*
%TD*%
%TO.C,D101*%
X34985000Y-117907500D03*
X34985000Y-116407500D03*
X29785000Y-116407500D03*
X29785000Y-117907500D03*
%TD*%
%TO.C,D119*%
X92135000Y-117907500D03*
X92135000Y-116407500D03*
X86935000Y-116407500D03*
X86935000Y-117907500D03*
%TD*%
%TO.C,D170*%
X282635000Y-136957500D03*
X282635000Y-135457500D03*
X277435000Y-135457500D03*
X277435000Y-136957500D03*
%TD*%
%TO.C,D151*%
X208816250Y-136957500D03*
X208816250Y-135457500D03*
X203616250Y-135457500D03*
X203616250Y-136957500D03*
%TD*%
%TO.C,D94*%
X-733750Y-98857500D03*
X-733750Y-97357500D03*
X-5933750Y-97357500D03*
X-5933750Y-98857500D03*
%TD*%
%TO.C,D164*%
X249291250Y-60652500D03*
X249291250Y-59152500D03*
X244091250Y-59152500D03*
X244091250Y-60652500D03*
%TD*%
%TO.C,D176*%
X320568125Y-41548750D03*
X320568125Y-40048750D03*
X315368125Y-40048750D03*
X315368125Y-41548750D03*
%TD*%
%TO.C,D163*%
X239772500Y-41548750D03*
X239772500Y-40048750D03*
X234572500Y-40048750D03*
X234572500Y-41548750D03*
%TD*%
%TO.C,D132*%
X125472500Y-60757500D03*
X125472500Y-59257500D03*
X120272500Y-59257500D03*
X120272500Y-60757500D03*
%TD*%
%TO.C,D118*%
X82610000Y-98857500D03*
X82610000Y-97357500D03*
X77410000Y-97357500D03*
X77410000Y-98857500D03*
%TD*%
%TO.C,D159*%
X230247500Y-79807500D03*
X230247500Y-78307500D03*
X225047500Y-78307500D03*
X225047500Y-79807500D03*
%TD*%
%TO.C,D116*%
X68322500Y-60757500D03*
X68322500Y-59257500D03*
X63122500Y-59257500D03*
X63122500Y-60757500D03*
%TD*%
%TO.C,D175*%
X301685000Y-136957500D03*
X301685000Y-135457500D03*
X296485000Y-135457500D03*
X296485000Y-136957500D03*
%TD*%
%TO.C,D137*%
X144522500Y-60757500D03*
X144522500Y-59257500D03*
X139322500Y-59257500D03*
X139322500Y-60757500D03*
%TD*%
%TO.C,D172*%
X301446875Y-60598750D03*
X301446875Y-59098750D03*
X296246875Y-59098750D03*
X296246875Y-60598750D03*
%TD*%
%TO.C,D97*%
X11172500Y-41707528D03*
X11172500Y-40207528D03*
X5972500Y-40207528D03*
X5972500Y-41707528D03*
%TD*%
%TO.C,D99*%
X20697500Y-79807500D03*
X20697500Y-78307500D03*
X15497500Y-78307500D03*
X15497500Y-79807500D03*
%TD*%
%TO.C,D109*%
X49272500Y-41707500D03*
X49272500Y-40207500D03*
X44072500Y-40207500D03*
X44072500Y-41707500D03*
%TD*%
%TO.C,D140*%
X168335000Y-117907500D03*
X168335000Y-116407500D03*
X163135000Y-116407500D03*
X163135000Y-117907500D03*
%TD*%
%TO.C,D103*%
X30222500Y-41707500D03*
X30222500Y-40207500D03*
X25022500Y-40207500D03*
X25022500Y-41707500D03*
%TD*%
%TO.C,D160*%
X246916250Y-98902500D03*
X246916250Y-97402500D03*
X241716250Y-97402500D03*
X241716250Y-98902500D03*
%TD*%
%TO.C,D154*%
X211197500Y-79807500D03*
X211197500Y-78307500D03*
X205997500Y-78307500D03*
X205997500Y-79807500D03*
%TD*%
%TO.C,D171*%
X301446875Y-41548750D03*
X301446875Y-40048750D03*
X296246875Y-40048750D03*
X296246875Y-41548750D03*
%TD*%
%TO.C,D168*%
X282468125Y-60598750D03*
X282468125Y-59098750D03*
X277268125Y-59098750D03*
X277268125Y-60598750D03*
%TD*%
%TO.C,D138*%
X154047500Y-79807500D03*
X154047500Y-78307500D03*
X148847500Y-78307500D03*
X148847500Y-79807500D03*
%TD*%
%TO.C,D155*%
X215960000Y-98857500D03*
X215960000Y-97357500D03*
X210760000Y-97357500D03*
X210760000Y-98857500D03*
%TD*%
%TO.C,D105*%
X39747500Y-79807500D03*
X39747500Y-78307500D03*
X34547500Y-78307500D03*
X34547500Y-79807500D03*
%TD*%
%TO.C,D112*%
X63560000Y-98857500D03*
X63560000Y-97357500D03*
X58360000Y-97357500D03*
X58360000Y-98857500D03*
%TD*%
%TO.C,D127*%
X115947500Y-79807500D03*
X115947500Y-78307500D03*
X110747500Y-78307500D03*
X110747500Y-79807500D03*
%TD*%
%TO.C,D135*%
X149285000Y-117907500D03*
X149285000Y-116407500D03*
X144085000Y-116407500D03*
X144085000Y-117907500D03*
%TD*%
%TO.C,D131*%
X125472500Y-41707500D03*
X125472500Y-40207500D03*
X120272500Y-40207500D03*
X120272500Y-41707500D03*
%TD*%
%TO.C,D133*%
X134997500Y-79807500D03*
X134997500Y-78307500D03*
X129797500Y-78307500D03*
X129797500Y-79807500D03*
%TD*%
%TO.C,D126*%
X106422500Y-60757500D03*
X106422500Y-59257500D03*
X101222500Y-59257500D03*
X101222500Y-60757500D03*
%TD*%
%TO.C,D95*%
X4062500Y-117902500D03*
X4062500Y-116402500D03*
X-1137500Y-116402500D03*
X-1137500Y-117902500D03*
%TD*%
%TO.C,D156*%
X232628750Y-136957500D03*
X232628750Y-135457500D03*
X227428750Y-135457500D03*
X227428750Y-136957500D03*
%TD*%
%TO.C,D177*%
X320568125Y-60598750D03*
X320568125Y-59098750D03*
X315368125Y-59098750D03*
X315368125Y-60598750D03*
%TD*%
%TO.C,D92*%
X-7877500Y-41707500D03*
X-7877500Y-40207500D03*
X-13077500Y-40207500D03*
X-13077500Y-41707500D03*
%TD*%
%TO.C,D123*%
X101660000Y-98857500D03*
X101660000Y-97357500D03*
X96460000Y-97357500D03*
X96460000Y-98857500D03*
%TD*%
%TO.C,D161*%
X242153750Y-117902500D03*
X242153750Y-116402500D03*
X236953750Y-116402500D03*
X236953750Y-117902500D03*
%TD*%
%TO.C,D152*%
X201672500Y-41707500D03*
X201672500Y-40207500D03*
X196472500Y-40207500D03*
X196472500Y-41707500D03*
%TD*%
%TO.C,D100*%
X25460000Y-98857500D03*
X25460000Y-97357500D03*
X20260000Y-97357500D03*
X20260000Y-98857500D03*
%TD*%
%TO.C,D124*%
X111185000Y-117907500D03*
X111185000Y-116407500D03*
X105985000Y-116407500D03*
X105985000Y-117907500D03*
%TD*%
%TO.C,D98*%
X11172500Y-60757500D03*
X11172500Y-59257500D03*
X5972500Y-59257500D03*
X5972500Y-60757500D03*
%TD*%
%TO.C,D147*%
X182622500Y-60757500D03*
X182622500Y-59257500D03*
X177422500Y-59257500D03*
X177422500Y-60757500D03*
%TD*%
%TO.C,D102*%
X18316250Y-136957500D03*
X18316250Y-135457500D03*
X13116250Y-135457500D03*
X13116250Y-136957500D03*
%TD*%
%TO.C,D129*%
X130235000Y-117907500D03*
X130235000Y-116407500D03*
X125035000Y-116407500D03*
X125035000Y-117907500D03*
%TD*%
%TO.C,D146*%
X182622500Y-41707500D03*
X182622500Y-40207500D03*
X177422500Y-40207500D03*
X177422500Y-41707500D03*
%TD*%
%TO.C,D139*%
X158810000Y-98857500D03*
X158810000Y-97357500D03*
X153610000Y-97357500D03*
X153610000Y-98857500D03*
%TD*%
%TO.C,D113*%
X73085000Y-117907500D03*
X73085000Y-116407500D03*
X67885000Y-116407500D03*
X67885000Y-117907500D03*
%TD*%
%TO.C,D115*%
X68322500Y-41707500D03*
X68322500Y-40207500D03*
X63122500Y-40207500D03*
X63122500Y-41707500D03*
%TD*%
%TO.C,D108*%
X42128750Y-136957500D03*
X42128750Y-135457500D03*
X36928750Y-135457500D03*
X36928750Y-136957500D03*
%TD*%
%TO.C,D145*%
X187385000Y-117907500D03*
X187385000Y-116407500D03*
X182185000Y-116407500D03*
X182185000Y-117907500D03*
%TD*%
%TO.C,D106*%
X44510000Y-98857500D03*
X44510000Y-97357500D03*
X39310000Y-97357500D03*
X39310000Y-98857500D03*
%TD*%
%TO.C,D149*%
X196910000Y-98857500D03*
X196910000Y-97357500D03*
X191710000Y-97357500D03*
X191710000Y-98857500D03*
%TD*%
%TO.C,D162*%
X256441250Y-136957500D03*
X256441250Y-135457500D03*
X251241250Y-135457500D03*
X251241250Y-136957500D03*
%TD*%
%TO.C,D143*%
X173097500Y-79966250D03*
X173097500Y-78466250D03*
X167897500Y-78466250D03*
X167897500Y-79966250D03*
%TD*%
%TO.C,D142*%
X163572500Y-60916250D03*
X163572500Y-59416250D03*
X158372500Y-59416250D03*
X158372500Y-60916250D03*
%TD*%
%TO.C,D128*%
X120710000Y-98857500D03*
X120710000Y-97357500D03*
X115510000Y-97357500D03*
X115510000Y-98857500D03*
%TD*%
%TO.C,D107*%
X54035000Y-117907500D03*
X54035000Y-116407500D03*
X48835000Y-116407500D03*
X48835000Y-117907500D03*
%TD*%
%TO.C,D166*%
X258881816Y-41548750D03*
X258881816Y-40048750D03*
X253681816Y-40048750D03*
X253681816Y-41548750D03*
%TD*%
%TO.C,D178*%
X320568125Y-79648750D03*
X320568125Y-78148750D03*
X315368125Y-78148750D03*
X315368125Y-79648750D03*
%TD*%
%TO.C,D111*%
X58797500Y-79807500D03*
X58797500Y-78307500D03*
X53597500Y-78307500D03*
X53597500Y-79807500D03*
%TD*%
%TO.C,D173*%
X301446875Y-79648750D03*
X301446875Y-78148750D03*
X296246875Y-78148750D03*
X296246875Y-79648750D03*
%TD*%
%TO.C,D122*%
X96897500Y-79807500D03*
X96897500Y-78307500D03*
X91697500Y-78307500D03*
X91697500Y-79807500D03*
%TD*%
%TO.C,D136*%
X144522500Y-41707500D03*
X144522500Y-40207500D03*
X139322500Y-40207500D03*
X139322500Y-41707500D03*
%TD*%
%TO.C,D134*%
X139760000Y-98857500D03*
X139760000Y-97357500D03*
X134560000Y-97357500D03*
X134560000Y-98857500D03*
%TD*%
%TO.C,D150*%
X206435000Y-117907500D03*
X206435000Y-116407500D03*
X201235000Y-116407500D03*
X201235000Y-117907500D03*
%TD*%
%TO.C,D158*%
X220722500Y-60757500D03*
X220722500Y-59257500D03*
X215522500Y-59257500D03*
X215522500Y-60757500D03*
%TD*%
%TO.C,D114*%
X65941250Y-136957500D03*
X65941250Y-135457500D03*
X60741250Y-135457500D03*
X60741250Y-136957500D03*
%TD*%
D11*
%TO.C,C59*%
X170250000Y-98750000D03*
X170250000Y-96850000D03*
%TD*%
%TO.C,C42*%
X313000000Y-79750000D03*
X313000000Y-77850000D03*
%TD*%
D12*
%TO.C,R1*%
X286500000Y-52250000D03*
X286500000Y-50425000D03*
%TD*%
D11*
%TO.C,C19*%
X60750000Y-60750000D03*
X60750000Y-58850000D03*
%TD*%
%TO.C,C56*%
X239500000Y-99000000D03*
X239500000Y-97100000D03*
%TD*%
%TO.C,C7*%
X194250000Y-41750000D03*
X194250000Y-39850000D03*
%TD*%
%TO.C,C36*%
X241750000Y-60750000D03*
X241750000Y-58850000D03*
%TD*%
%TO.C,C49*%
X165500000Y-80000000D03*
X165500000Y-78100000D03*
%TD*%
%TO.C,C50*%
X146500000Y-79750000D03*
X146500000Y-77850000D03*
%TD*%
%TO.C,C83*%
X130000000Y-136750000D03*
X130000000Y-134850000D03*
%TD*%
%TO.C,C64*%
X75000000Y-98750000D03*
X75000000Y-96850000D03*
%TD*%
%TO.C,C27*%
X60750000Y-41750000D03*
X60750000Y-39850000D03*
%TD*%
%TO.C,C61*%
X132250000Y-98750000D03*
X132250000Y-96850000D03*
%TD*%
%TO.C,C2*%
X294000000Y-41500000D03*
X294000000Y-39600000D03*
%TD*%
%TO.C,C87*%
X275250000Y-137000000D03*
X275250000Y-135100000D03*
%TD*%
%TO.C,C32*%
X-10500000Y-79750000D03*
X-10500000Y-77850000D03*
%TD*%
%TO.C,C18*%
X80000000Y-60750000D03*
X80000000Y-58850000D03*
%TD*%
%TO.C,C21*%
X22750000Y-60750000D03*
X22750000Y-58850000D03*
%TD*%
%TO.C,C28*%
X70250000Y-79750000D03*
X70250000Y-77850000D03*
%TD*%
%TO.C,C23*%
X-15250000Y-60750000D03*
X-15250000Y-58850000D03*
%TD*%
%TO.C,C78*%
X46500000Y-118000000D03*
X46500000Y-116100000D03*
%TD*%
%TO.C,C1*%
X-15250000Y-41700000D03*
X-15250000Y-39800000D03*
%TD*%
%TO.C,C68*%
X294250000Y-118000000D03*
X294250000Y-116100000D03*
%TD*%
%TO.C,C84*%
X201250000Y-137000000D03*
X201250000Y-135100000D03*
%TD*%
%TO.C,C44*%
X275000000Y-79750000D03*
X275000000Y-77850000D03*
%TD*%
%TO.C,C85*%
X225250000Y-137000000D03*
X225250000Y-135100000D03*
%TD*%
%TO.C,C55*%
X-3500000Y-118000000D03*
X-3500000Y-116100000D03*
%TD*%
%TO.C,C89*%
X313250000Y-137000000D03*
X313250000Y-135100000D03*
%TD*%
%TO.C,C81*%
X34750000Y-137000000D03*
X34750000Y-135100000D03*
%TD*%
%TO.C,C10*%
X137000000Y-41750000D03*
X137000000Y-39850000D03*
%TD*%
%TO.C,C45*%
X246500000Y-79750000D03*
X246500000Y-77850000D03*
%TD*%
%TO.C,C31*%
X13250000Y-80000000D03*
X13250000Y-78100000D03*
%TD*%
%TO.C,C43*%
X294000000Y-79750000D03*
X294000000Y-77850000D03*
%TD*%
%TO.C,C88*%
X294250000Y-137000000D03*
X294250000Y-135100000D03*
%TD*%
%TO.C,C47*%
X203750000Y-79750000D03*
X203750000Y-77850000D03*
%TD*%
%TO.C,C86*%
X249000000Y-137000000D03*
X249000000Y-135100000D03*
%TD*%
%TO.C,C66*%
X37000000Y-98750000D03*
X37000000Y-96850000D03*
%TD*%
%TO.C,C39*%
X175250000Y-60750000D03*
X175250000Y-58850000D03*
%TD*%
%TO.C,C3*%
X275000000Y-41500000D03*
X275000000Y-39600000D03*
%TD*%
%TO.C,C54*%
X18000000Y-98750000D03*
X18000000Y-96850000D03*
%TD*%
%TO.C,C35*%
X275000000Y-60750000D03*
X275000000Y-58850000D03*
%TD*%
%TO.C,C37*%
X213250000Y-60750000D03*
X213250000Y-58850000D03*
%TD*%
%TO.C,C62*%
X113250000Y-98750000D03*
X113250000Y-96850000D03*
%TD*%
%TO.C,C9*%
X156000000Y-42000000D03*
X156000000Y-40100000D03*
%TD*%
%TO.C,C38*%
X194250000Y-60750000D03*
X194250000Y-58850000D03*
%TD*%
%TO.C,C41*%
X-8250000Y-98750000D03*
X-8250000Y-96850000D03*
%TD*%
%TO.C,C75*%
X103750000Y-118000000D03*
X103750000Y-116100000D03*
%TD*%
%TO.C,C5*%
X232250000Y-41500000D03*
X232250000Y-39600000D03*
%TD*%
%TO.C,C79*%
X27250000Y-118000000D03*
X27250000Y-116100000D03*
%TD*%
%TO.C,C12*%
X41750000Y-41700000D03*
X41750000Y-39800000D03*
%TD*%
%TO.C,C82*%
X58500000Y-137000000D03*
X58500000Y-135100000D03*
%TD*%
%TO.C,C24*%
X313000000Y-41500000D03*
X313000000Y-39600000D03*
%TD*%
%TO.C,C11*%
X118000000Y-41750000D03*
X118000000Y-39850000D03*
%TD*%
%TO.C,C52*%
X108250000Y-79750000D03*
X108250000Y-77850000D03*
%TD*%
%TO.C,C25*%
X99000000Y-41750000D03*
X99000000Y-39850000D03*
%TD*%
%TO.C,C17*%
X99000000Y-60750000D03*
X99000000Y-58850000D03*
%TD*%
%TO.C,C65*%
X56000000Y-98750000D03*
X56000000Y-96850000D03*
%TD*%
%TO.C,C48*%
X184750000Y-79750000D03*
X184750000Y-77850000D03*
%TD*%
%TO.C,C33*%
X313000000Y-60500000D03*
X313000000Y-58600000D03*
%TD*%
%TO.C,C51*%
X127500000Y-79750000D03*
X127500000Y-77850000D03*
%TD*%
%TO.C,C63*%
X94250000Y-98750000D03*
X94250000Y-96850000D03*
%TD*%
%TO.C,C60*%
X151250000Y-98750000D03*
X151250000Y-96850000D03*
%TD*%
%TO.C,C26*%
X80000000Y-41750000D03*
X80000000Y-39850000D03*
%TD*%
%TO.C,C13*%
X22750000Y-41700000D03*
X22750000Y-39800000D03*
%TD*%
%TO.C,C20*%
X41750000Y-60750000D03*
X41750000Y-58850000D03*
%TD*%
%TO.C,C4*%
X251500000Y-41500000D03*
X251500000Y-39600000D03*
%TD*%
%TO.C,C67*%
X-13000000Y-137000000D03*
X-13000000Y-135100000D03*
%TD*%
%TO.C,C14*%
X3750000Y-41700000D03*
X3750000Y-39800000D03*
%TD*%
%TO.C,C53*%
X89500000Y-79750000D03*
X89500000Y-77850000D03*
%TD*%
%TO.C,C70*%
X199000000Y-118000000D03*
X199000000Y-116100000D03*
%TD*%
%TO.C,C29*%
X51250000Y-79750000D03*
X51250000Y-77850000D03*
%TD*%
%TO.C,C71*%
X180000000Y-118000000D03*
X180000000Y-116100000D03*
%TD*%
%TO.C,C72*%
X160750000Y-118000000D03*
X160750000Y-116100000D03*
%TD*%
%TO.C,C22*%
X3750000Y-60750000D03*
X3750000Y-58850000D03*
%TD*%
%TO.C,C46*%
X222750000Y-79750000D03*
X222750000Y-77850000D03*
%TD*%
%TO.C,C58*%
X189500000Y-98950000D03*
X189500000Y-97050000D03*
%TD*%
%TO.C,C40*%
X137000000Y-60750000D03*
X137000000Y-58850000D03*
%TD*%
%TO.C,C8*%
X175250000Y-41750000D03*
X175250000Y-39850000D03*
%TD*%
%TO.C,C69*%
X234750000Y-118000000D03*
X234750000Y-116100000D03*
%TD*%
%TO.C,C34*%
X294000000Y-60750000D03*
X294000000Y-58850000D03*
%TD*%
%TO.C,C6*%
X213250000Y-41750000D03*
X213250000Y-39850000D03*
%TD*%
%TO.C,C77*%
X65500000Y-118000000D03*
X65500000Y-116100000D03*
%TD*%
%TO.C,C16*%
X118000000Y-60750000D03*
X118000000Y-58850000D03*
%TD*%
%TO.C,C74*%
X122750000Y-118000000D03*
X122750000Y-116100000D03*
%TD*%
%TO.C,C76*%
X84750000Y-118000000D03*
X84750000Y-116100000D03*
%TD*%
%TO.C,C15*%
X156250000Y-61000000D03*
X156250000Y-59100000D03*
%TD*%
%TO.C,C80*%
X10750000Y-137000000D03*
X10750000Y-135100000D03*
%TD*%
%TO.C,C30*%
X32250000Y-79750000D03*
X32250000Y-77850000D03*
%TD*%
%TO.C,C73*%
X141750000Y-118000000D03*
X141750000Y-116100000D03*
%TD*%
%TO.C,C57*%
X208500000Y-98750000D03*
X208500000Y-96850000D03*
%TD*%
M02*
