M48
; DRILL file {KiCad 9.0.3-9.0.3-0~ubuntu24.04.1} date 2025-07-19T21:47:44-0700
; FORMAT={-:-/ absolute / metric / decimal}
; #@! TF.CreationDate,2025-07-19T21:47:44-07:00
; #@! TF.GenerationSoftware,Kicad,Pcbnew,9.0.3-9.0.3-0~ubuntu24.04.1
; #@! TF.FileFunction,Plated,1,2,PTH
FMAT,2
METRIC
; #@! TA.AperFunction,Plated,PTH,ViaDrill
T1C0.300
; #@! TA.AperFunction,Plated,PTH,ComponentDrill
T2C0.800
; #@! TA.AperFunction,Plated,PTH,ComponentDrill
T3C1.000
; #@! TA.AperFunction,Plated,PTH,ComponentDrill
T4C1.500
%
G90
G05
T1
X-15.25Y-41.7
X-15.25Y-60.75
X-13.077Y-41.707
X-13.077Y-60.758
X-13.0Y-137.0
X-12.886Y-18.474
X-12.75Y-28.5
X-12.25Y-17.837
X-10.696Y-136.957
X-10.5Y-79.75
X-8.315Y-79.807
X-8.25Y-98.75
X-5.934Y-98.858
X-3.5Y-118.0
X-1.137Y-117.902
X3.75Y-41.7
X3.75Y-60.75
X5.973Y-41.708
X5.973Y-60.758
X6.0Y-54.5
X10.75Y-137.0
X11.0Y-43.75
X11.112Y-18.6
X13.116Y-136.957
X13.25Y-80.0
X15.497Y-79.807
X18.0Y-98.75
X20.26Y-98.858
X22.75Y-41.7
X22.75Y-60.75
X25.022Y-41.707
X25.022Y-60.758
X27.25Y-118.0
X29.785Y-117.907
X30.162Y-18.778
X32.25Y-79.75
X34.547Y-79.807
X34.75Y-137.0
X36.929Y-136.957
X37.0Y-98.75
X39.31Y-98.858
X41.75Y-41.7
X41.75Y-60.75
X44.072Y-41.707
X44.072Y-60.758
X46.5Y-118.0
X48.835Y-117.907
X49.25Y-19.091
X51.25Y-79.75
X53.597Y-79.807
X56.0Y-98.75
X58.36Y-98.858
X58.5Y-137.0
X60.741Y-136.957
X60.75Y-41.75
X60.75Y-60.75
X63.122Y-41.707
X63.122Y-60.758
X65.5Y-118.0
X67.885Y-117.907
X68.263Y-19.73
X70.25Y-79.75
X72.647Y-79.807
X75.0Y-98.75
X77.41Y-98.858
X80.0Y-41.75
X80.0Y-60.75
X82.172Y-41.707
X82.172Y-60.758
X84.75Y-118.0
X86.935Y-117.907
X87.312Y-20.081
X89.5Y-79.75
X91.697Y-79.807
X94.25Y-98.75
X94.25Y-124.75
X96.46Y-98.858
X99.0Y-41.75
X99.0Y-60.75
X101.222Y-41.707
X101.222Y-60.758
X103.75Y-118.0
X105.985Y-117.907
X106.362Y-20.682
X106.422Y-60.758
X108.25Y-79.75
X110.25Y-68.75
X110.747Y-79.807
X113.25Y-98.75
X114.75Y-124.0
X115.51Y-98.858
X118.0Y-41.75
X118.0Y-60.75
X120.272Y-41.707
X120.272Y-60.758
X122.75Y-118.0
X125.035Y-117.907
X125.412Y-20.783
X127.5Y-79.75
X129.797Y-79.807
X130.0Y-136.75
X131.75Y-123.749
X132.25Y-98.75
X132.362Y-136.903
X134.56Y-98.858
X137.0Y-41.75
X137.0Y-60.75
X139.322Y-41.707
X139.322Y-60.758
X141.75Y-118.0
X144.085Y-117.907
X144.463Y-21.384
X144.522Y-60.758
X146.5Y-79.75
X148.847Y-79.807
X149.0Y-65.0
X150.25Y-49.75
X151.25Y-98.75
X153.61Y-98.858
X154.047Y-79.807
X154.25Y-125.25
X154.35Y-57.5
X154.75Y-89.5
X156.0Y-42.0
X156.25Y-61.0
X157.25Y-43.75
X157.963Y-57.5
X158.373Y-41.866
X158.373Y-60.916
X160.75Y-118.0
X163.135Y-117.907
X163.512Y-21.735
X165.5Y-80.0
X167.897Y-79.966
X169.5Y-122.25
X170.25Y-98.75
X172.66Y-98.858
X175.25Y-41.75
X175.25Y-60.75
X177.422Y-41.707
X177.422Y-60.758
X180.0Y-118.0
X182.185Y-117.907
X182.562Y-22.086
X182.623Y-60.758
X184.75Y-79.75
X186.75Y-69.75
X186.947Y-79.807
X189.5Y-98.95
X191.5Y-129.018
X191.71Y-98.858
X194.25Y-41.75
X194.25Y-60.75
X196.472Y-41.707
X196.472Y-60.758
X197.0Y-53.25
X199.0Y-118.0
X201.235Y-117.907
X201.25Y-137.0
X201.612Y-22.437
X201.75Y-43.5
X203.616Y-136.957
X203.75Y-79.75
X205.998Y-79.807
X208.5Y-98.75
X210.0Y-54.25
X210.76Y-98.858
X213.25Y-41.75
X213.25Y-60.75
X214.25Y-139.25
X215.522Y-41.707
X215.522Y-60.758
X217.5Y-52.0
X220.5Y-43.25
X220.722Y-60.758
X222.75Y-79.75
X225.047Y-79.807
X225.25Y-137.0
X226.0Y-70.75
X227.429Y-136.957
X232.25Y-41.5
X232.5Y-119.5
X234.572Y-41.549
X234.75Y-118.0
X236.954Y-117.902
X239.5Y-99.0
X239.712Y-22.738
X239.772Y-41.549
X241.716Y-98.902
X241.75Y-60.75
X243.75Y-54.5
X244.091Y-60.652
X246.5Y-79.75
X248.86Y-79.807
X249.0Y-137.0
X250.375Y-86.375
X251.241Y-136.957
X251.5Y-41.5
X253.682Y-41.549
X256.001Y-60.75
X256.001Y-68.75
X266.749Y-48.961
X267.5Y-70.25
X267.75Y-69.0
X268.0Y-42.25
X268.25Y-48.5
X270.5Y-68.25
X270.5Y-83.0
X270.5Y-113.75
X271.75Y-69.0
X271.75Y-83.0
X271.75Y-113.75
X272.5Y-47.75
X275.0Y-41.5
X275.0Y-60.75
X275.0Y-79.75
X275.25Y-137.0
X277.268Y-41.549
X277.268Y-59.099
X277.268Y-60.599
X277.268Y-78.149
X277.268Y-79.649
X277.435Y-136.957
X278.128Y-29.0
X282.468Y-40.049
X282.5Y-41.5
X282.5Y-60.5
X287.25Y-59.75
X287.75Y-18.25
X288.0Y-63.75
X288.0Y-87.5
X288.75Y-26.0
X289.0Y-113.25
X291.4Y-27.75
X291.4Y-38.5
X291.75Y-87.5
X291.75Y-107.25
X292.0Y-22.5
X292.5Y-60.25
X292.5Y-62.75
X294.0Y-41.5
X294.0Y-60.75
X294.0Y-79.75
X294.25Y-118.0
X294.25Y-137.0
X295.9Y-37.371
X296.247Y-40.049
X296.247Y-41.549
X296.247Y-59.099
X296.247Y-60.599
X296.247Y-78.149
X296.247Y-79.649
X296.485Y-117.907
X296.485Y-136.957
X296.5Y-36.75
X298.106Y-48.856
X300.5Y-44.999
X301.147Y-36.82
X301.447Y-41.549
X301.447Y-60.599
X301.747Y-37.638
X302.25Y-52.418
X304.384Y-23.104
X305.5Y-18.25
X306.75Y-22.5
X313.0Y-41.5
X313.0Y-60.5
X313.0Y-79.75
X313.25Y-137.0
X315.368Y-41.549
X315.368Y-60.599
X315.368Y-78.149
X315.368Y-79.649
X315.535Y-136.957
X315.75Y-126.75
X316.25Y-21.625
X320.568Y-60.599
X322.0Y-38.0
T2
X-20.002Y-32.067
X-20.002Y-39.688
X-20.002Y-51.117
X-20.002Y-58.737
X-17.621Y-127.317
X-17.621Y-134.938
X-15.24Y-70.167
X-15.24Y-77.787
X-12.859Y-89.218
X-12.859Y-96.837
X-8.096Y-108.267
X-8.096Y-115.887
X-0.952Y-32.067
X-0.952Y-39.688
X-0.952Y-51.117
X-0.952Y-58.737
X6.191Y-127.317
X6.191Y-134.938
X8.572Y-70.167
X8.572Y-77.787
X13.335Y-89.218
X13.335Y-96.837
X18.098Y-32.067
X18.098Y-39.688
X18.098Y-51.117
X18.098Y-58.737
X22.86Y-108.267
X22.86Y-115.887
X27.622Y-70.167
X27.622Y-77.787
X30.004Y-127.317
X30.004Y-134.938
X32.385Y-89.218
X32.385Y-96.837
X37.148Y-32.067
X37.148Y-39.688
X37.148Y-51.117
X37.148Y-58.737
X41.91Y-108.267
X41.91Y-115.887
X46.672Y-70.167
X46.672Y-77.787
X51.435Y-89.218
X51.435Y-96.837
X53.816Y-127.317
X53.816Y-134.938
X56.197Y-32.067
X56.197Y-39.688
X56.197Y-51.117
X56.197Y-58.737
X60.96Y-108.267
X60.96Y-115.887
X65.722Y-70.167
X65.722Y-77.787
X70.485Y-89.218
X70.485Y-96.837
X75.248Y-32.067
X75.248Y-39.688
X75.248Y-51.117
X75.248Y-58.737
X80.01Y-108.267
X80.01Y-115.887
X84.772Y-70.167
X84.772Y-77.787
X89.535Y-89.218
X89.535Y-96.837
X94.297Y-32.067
X94.297Y-39.688
X94.297Y-51.117
X94.297Y-58.737
X99.06Y-108.267
X99.06Y-115.887
X103.822Y-70.167
X103.822Y-77.787
X108.585Y-89.218
X108.585Y-96.837
X113.347Y-32.067
X113.347Y-39.688
X113.347Y-51.117
X113.347Y-58.737
X118.11Y-108.267
X118.11Y-115.887
X122.872Y-70.167
X122.872Y-77.787
X125.254Y-127.317
X125.254Y-134.938
X127.635Y-89.218
X127.635Y-96.837
X132.398Y-32.067
X132.398Y-39.688
X132.398Y-51.117
X132.398Y-58.737
X137.16Y-108.267
X137.16Y-115.887
X141.922Y-70.167
X141.922Y-77.787
X146.685Y-89.218
X146.685Y-96.837
X151.447Y-32.226
X151.447Y-39.846
X151.447Y-51.276
X151.447Y-58.896
X156.21Y-108.267
X156.21Y-115.887
X160.972Y-70.326
X160.972Y-77.946
X165.735Y-89.218
X165.735Y-96.837
X170.498Y-32.067
X170.498Y-39.688
X170.498Y-51.117
X170.498Y-58.737
X175.26Y-108.267
X175.26Y-115.887
X180.022Y-70.167
X180.022Y-77.787
X184.785Y-89.218
X184.785Y-96.837
X189.547Y-32.067
X189.547Y-39.688
X189.547Y-51.117
X189.547Y-58.737
X194.31Y-108.267
X194.31Y-115.887
X196.691Y-127.317
X196.691Y-134.938
X199.072Y-70.167
X199.072Y-77.787
X203.835Y-89.218
X203.835Y-96.837
X208.597Y-32.067
X208.597Y-39.688
X208.597Y-51.117
X208.597Y-58.737
X218.123Y-70.167
X218.123Y-77.787
X220.504Y-127.317
X220.504Y-134.938
X227.647Y-32.067
X227.647Y-39.688
X230.029Y-108.267
X230.029Y-115.887
X234.75Y-89.19
X234.75Y-96.81
X237.25Y-50.94
X237.25Y-58.56
X242.0Y-70.167
X242.0Y-77.787
X244.316Y-127.317
X244.316Y-134.938
X246.757Y-31.909
X246.757Y-39.529
X270.343Y-31.671
X270.343Y-39.291
X270.343Y-50.959
X270.343Y-58.579
X270.343Y-70.009
X270.343Y-77.629
X270.51Y-127.317
X270.51Y-134.938
X289.5Y-70.44
X289.5Y-78.06
X289.56Y-108.267
X289.56Y-115.887
X289.56Y-127.317
X289.56Y-134.938
X294.69Y-26.25
X294.69Y-45.5
X302.31Y-26.25
X302.31Y-45.5
X308.61Y-127.317
X308.61Y-134.938
X327.5Y-32.19
X327.5Y-39.81
X327.5Y-50.94
X327.5Y-58.56
X327.5Y-70.009
X327.5Y-77.629
T3
X290.25Y-19.13
X290.25Y-21.67
X290.25Y-24.21
X290.25Y-26.75
X290.25Y-29.29
X290.25Y-31.83
X290.25Y-34.37
X290.25Y-36.91
X290.25Y-39.45
X290.25Y-41.99
X290.25Y-44.53
X290.25Y-47.07
X290.25Y-49.61
X290.25Y-52.15
X290.25Y-54.69
X290.25Y-57.23
X290.25Y-59.77
X290.25Y-62.31
X290.25Y-64.85
X290.25Y-67.39
X308.03Y-19.13
X308.03Y-21.67
X308.03Y-24.21
X308.03Y-26.75
X308.03Y-29.29
X308.03Y-31.83
X308.03Y-34.37
X308.03Y-36.91
X308.03Y-39.45
X308.03Y-41.99
X308.03Y-44.53
X308.03Y-47.07
X308.03Y-49.61
X308.03Y-52.15
X308.03Y-54.69
X308.03Y-57.23
X308.03Y-59.77
X308.03Y-62.31
X308.03Y-64.85
X308.03Y-67.39
T4
X-14.287Y-33.337
X-14.287Y-52.387
X-11.906Y-128.588
X-9.525Y-71.438
X-7.938Y-30.797
X-7.938Y-49.847
X-7.144Y-90.487
X-5.556Y-126.047
X-3.175Y-68.897
X-2.381Y-109.537
X-0.794Y-87.947
X3.969Y-106.997
X4.763Y-33.338
X4.763Y-52.387
X11.112Y-30.798
X11.112Y-49.847
X11.906Y-128.588
X14.287Y-71.438
X18.256Y-126.047
X19.05Y-90.487
X20.637Y-68.897
X23.812Y-33.337
X23.812Y-52.387
X25.4Y-87.947
X28.575Y-109.537
X30.162Y-30.797
X30.162Y-49.847
X33.337Y-71.438
X34.925Y-106.997
X35.719Y-128.588
X38.1Y-90.487
X39.688Y-68.897
X42.069Y-126.047
X42.862Y-33.337
X42.862Y-52.387
X44.45Y-87.947
X47.625Y-109.537
X49.212Y-30.797
X49.212Y-49.847
X52.387Y-71.438
X53.975Y-106.997
X57.15Y-90.487
X58.737Y-68.897
X59.531Y-128.588
X61.912Y-33.337
X61.912Y-52.387
X63.5Y-87.947
X65.881Y-126.047
X66.675Y-109.537
X68.263Y-30.797
X68.263Y-49.847
X71.438Y-71.438
X73.025Y-106.997
X76.2Y-90.487
X77.787Y-68.897
X80.962Y-33.337
X80.962Y-52.387
X82.55Y-87.947
X85.725Y-109.537
X87.312Y-30.797
X87.312Y-49.847
X90.487Y-71.438
X92.075Y-106.997
X95.25Y-90.487
X96.837Y-68.897
X100.012Y-33.337
X100.012Y-52.387
X101.6Y-87.947
X104.775Y-109.537
X106.362Y-30.797
X106.362Y-49.847
X109.537Y-71.438
X111.125Y-106.997
X114.3Y-90.487
X115.887Y-68.897
X119.062Y-33.337
X119.062Y-52.387
X120.65Y-87.947
X123.825Y-109.537
X125.412Y-30.797
X125.412Y-49.847
X128.588Y-71.438
X130.175Y-106.997
X130.969Y-128.588
X133.35Y-90.487
X134.938Y-68.897
X137.319Y-126.047
X138.112Y-33.337
X138.112Y-52.387
X139.7Y-87.947
X142.875Y-109.537
X144.463Y-30.797
X144.463Y-49.847
X147.637Y-71.438
X149.225Y-106.997
X152.4Y-90.487
X153.987Y-68.897
X157.162Y-33.496
X157.162Y-52.546
X158.75Y-87.947
X161.925Y-109.537
X163.512Y-30.956
X163.512Y-50.006
X166.688Y-71.596
X168.275Y-106.997
X171.45Y-90.487
X173.037Y-69.056
X176.213Y-33.337
X176.213Y-52.387
X177.8Y-87.947
X180.975Y-109.537
X182.562Y-30.797
X182.562Y-49.847
X185.737Y-71.438
X187.325Y-106.997
X190.5Y-90.487
X192.087Y-68.897
X195.262Y-33.337
X195.262Y-52.387
X196.85Y-87.947
X200.025Y-109.537
X201.612Y-30.797
X201.612Y-49.847
X202.406Y-128.588
X204.787Y-71.438
X206.375Y-106.997
X208.756Y-126.047
X209.55Y-90.487
X211.137Y-68.897
X214.312Y-33.337
X214.312Y-52.387
X215.9Y-87.947
X220.662Y-30.797
X220.662Y-49.847
X223.837Y-71.438
X226.219Y-128.588
X230.188Y-68.897
X232.569Y-126.047
X233.362Y-33.179
X235.744Y-109.537
X239.712Y-30.639
X240.506Y-90.487
X242.094Y-106.997
X242.881Y-52.229
X246.856Y-87.947
X247.65Y-71.438
X249.231Y-49.689
X250.031Y-128.588
X252.472Y-33.179
X254.0Y-68.897
X256.381Y-126.047
X258.822Y-30.639
X276.058Y-33.179
X276.058Y-52.229
X276.058Y-71.279
X276.225Y-128.588
X282.408Y-30.639
X282.408Y-49.689
X282.408Y-68.739
X282.575Y-126.047
X295.037Y-33.179
X295.037Y-52.229
X295.037Y-71.279
X295.275Y-109.537
X295.275Y-128.588
X301.387Y-30.639
X301.387Y-49.689
X301.387Y-68.739
X301.625Y-106.997
X301.625Y-126.047
X314.158Y-33.179
X314.158Y-52.229
X314.158Y-71.279
X314.325Y-128.588
X320.508Y-30.639
X320.508Y-49.689
X320.508Y-68.739
X320.675Y-126.047
M30
